<?xml version="1.0" standalone="no"?>
<!DOCTYPE svg PUBLIC "-//W3C//DTD SVG 20010904//EN"
 "http://www.w3.org/TR/2001/REC-SVG-20010904/DTD/svg10.dtd">
<svg version="1.0" xmlns="http://www.w3.org/2000/svg"
 width="497.000000pt" height="502.000000pt" viewBox="0 0 497.000000 502.000000"
 preserveAspectRatio="xMidYMid meet">

<g transform="translate(0.000000,502.000000) scale(0.100000,-0.100000)"
fill="#000000" stroke="none">
<path d="M2145 5005 c-326 -46 -593 -129 -852 -265 -501 -263 -906 -711 -1116
-1232 -138 -343 -205 -798 -166 -1122 40 -330 119 -606 245 -858 30 -59 54
-110 54 -113 0 -3 -47 -5 -105 -5 -58 0 -105 -3 -105 -7 0 -3 35 -64 77 -135
200 -336 467 -616 793 -833 330 -220 654 -345 1071 -414 180 -30 572 -30 756
-1 735 118 1387 525 1757 1098 50 76 156 270 156 284 0 4 -40 8 -90 8 -49 0
-90 2 -90 5 0 3 24 54 54 113 385 770 328 1693 -149 2407 -391 586 -992 963
-1690 1062 -152 21 -473 26 -600 8z m253 -187 l-3 -33 -75 -5 c-41 -3 -74 -8
-72 -12 1 -5 2 -21 2 -37 l0 -29 65 6 65 5 0 -37 0 -36 -59 0 c-33 0 -62 -4
-65 -9 -3 -5 -3 -23 0 -41 l7 -31 75 2 76 2 0 -29 c0 -28 -2 -29 -59 -35 -33
-4 -83 -7 -111 -8 -63 -1 -60 -10 -69 196 l-8 152 64 4 c35 2 88 4 117 5 l53
2 -3 -32z m223 22 c15 0 23 -16 41 -75 12 -41 24 -75 28 -75 3 0 22 30 43 65
38 65 50 72 90 56 17 -6 16 -10 -9 -46 -80 -118 -103 -164 -110 -224 -7 -61
-7 -61 -39 -61 -17 0 -34 2 -37 5 -2 3 0 35 4 72 8 64 7 74 -27 166 -39 110
-43 132 -19 123 9 -3 24 -6 35 -6z m-540 -59 c36 -37 43 -99 13 -132 -8 -8
-14 -18 -14 -22 0 -3 20 -35 45 -71 25 -35 42 -67 38 -69 -5 -3 -21 -7 -38 -8
-27 -4 -34 2 -70 58 -35 55 -43 62 -65 57 -14 -3 -27 -7 -29 -9 -2 -2 2 -34 9
-70 7 -36 11 -67 9 -69 -2 -2 -18 -6 -36 -9 l-32 -6 -11 57 c-6 31 -22 108
-36 171 -13 62 -23 115 -22 116 7 6 145 33 176 34 25 1 41 -7 63 -28z m984
-27 c52 -28 70 -61 68 -129 -2 -72 -31 -143 -74 -179 -58 -49 -169 -30 -209
37 -24 39 -25 82 -4 158 33 117 122 163 219 113z m-1295 -30 c6 -14 10 -27 10
-29 0 -2 -31 -15 -70 -30 -38 -15 -70 -28 -70 -29 0 -2 5 -17 11 -35 9 -24 16
-31 28 -26 76 32 103 37 112 24 19 -30 9 -47 -38 -65 -64 -23 -67 -27 -53 -67
l13 -34 73 26 c40 14 74 24 77 21 2 -3 7 -16 10 -31 6 -24 2 -27 -99 -63 -57
-22 -106 -37 -108 -35 -7 8 -117 321 -114 324 5 4 192 74 201 75 4 0 12 -12
17 -26z m1509 -45 c17 -6 31 -13 31 -15 0 -3 -22 -53 -50 -111 -27 -58 -50
-119 -50 -134 0 -32 29 -54 59 -44 20 6 23 12 91 159 21 47 41 86 44 86 13 0
56 -24 56 -32 0 -10 -72 -168 -99 -218 -10 -19 -32 -43 -49 -53 -26 -16 -37
-16 -73 -7 -54 15 -109 68 -109 106 0 21 106 274 115 274 1 0 16 -5 34 -11z
m-1715 -221 l66 -125 -24 -17 c-35 -23 -41 -21 -60 22 -9 20 -25 48 -35 61
l-18 23 -40 -21 -41 -20 34 -65 35 -65 -32 -16 c-17 -9 -32 -15 -34 -13 -11
12 -155 287 -155 296 0 12 31 32 49 32 5 0 24 -25 41 -55 l31 -54 44 21 44 21
-30 53 c-16 29 -29 58 -29 63 0 6 12 17 27 25 32 17 26 25 127 -166z m2067 37
c76 -54 89 -69 89 -107 0 -58 -41 -108 -89 -108 -16 0 -22 -11 -31 -57 -24
-118 -20 -113 -60 -86 -14 9 -26 17 -27 17 -1 1 5 35 13 76 13 69 13 76 -3 88
-26 19 -37 15 -56 -20 -10 -18 -26 -44 -36 -57 -18 -24 -20 -24 -45 -8 -14 10
-26 21 -26 25 0 8 106 175 155 245 14 20 32 37 39 37 7 0 41 -20 77 -45z
m-2363 -157 c40 -84 72 -159 72 -165 0 -7 -11 -20 -25 -29 -24 -16 -26 -15
-115 61 -49 42 -90 74 -90 71 0 -2 23 -51 52 -107 l51 -102 -28 -23 -28 -22
-133 110 c-74 61 -134 114 -134 119 0 5 11 16 25 25 28 18 16 25 153 -92 l44
-37 -52 102 c-48 97 -50 104 -33 117 45 35 46 35 123 -36 41 -38 78 -69 83
-70 4 0 -13 40 -38 90 -25 49 -45 95 -45 101 0 11 28 38 40 39 3 0 38 -69 78
-152z m1479 -43 c462 -94 844 -348 1104 -734 131 -194 200 -358 261 -616 26
-112 37 -432 19 -571 -48 -365 -221 -713 -491 -984 -152 -153 -270 -238 -455
-329 -285 -141 -514 -189 -835 -178 -261 10 -479 66 -710 183 -764 390 -1124
1262 -859 2079 65 197 192 420 338 590 272 316 702 541 1116 584 149 16 365 6
512 -24z m1200 -45 l25 -20 -46 -46 c-25 -26 -46 -50 -46 -53 0 -3 14 -20 32
-38 l32 -33 48 47 48 47 25 -24 26 -24 -123 -123 -122 -123 -23 22 c-13 12
-23 25 -23 30 0 4 20 26 45 49 25 23 45 47 45 53 0 6 -14 24 -32 39 l-31 28
-52 -51 -51 -50 -22 23 c-12 13 -22 27 -22 30 0 9 228 237 236 237 3 0 17 -9
31 -20z m-3150 -182 c37 -14 39 -19 17 -53 -13 -19 -21 -23 -49 -18 -27 4 -35
1 -45 -17 -28 -52 21 -67 82 -25 51 34 88 41 126 21 34 -17 62 -61 62 -96 0
-31 -25 -74 -60 -104 -37 -31 -103 -36 -132 -9 -18 16 -18 17 3 39 16 18 28
22 51 17 52 -10 93 53 49 76 -15 8 -31 4 -75 -19 -74 -40 -109 -39 -152 4 -20
20 -34 44 -34 58 0 38 42 102 80 120 42 21 36 21 77 6z m3413 -110 c34 -45 64
-87 67 -94 2 -6 -7 -18 -21 -27 -24 -16 -25 -16 -67 41 -24 31 -44 59 -45 60
-1 2 -16 -6 -33 -19 l-30 -22 40 -51 39 -51 -21 -17 c-12 -10 -24 -18 -28 -18
-4 0 -24 22 -45 50 l-38 49 -29 -21 c-16 -12 -29 -25 -29 -29 0 -3 20 -32 45
-64 l44 -57 -21 -18 c-21 -16 -17 -16 67 -3 48 8 126 23 172 33 46 11 86 20
88 20 11 0 35 -63 30 -78 -3 -9 -57 -71 -120 -137 -62 -66 -110 -121 -106
-123 4 -1 74 23 155 53 82 30 152 55 156 55 4 0 22 -41 41 -92 l33 -91 -20
-36 c-26 -49 -86 -71 -130 -49 -30 14 -31 14 -90 -39 -32 -29 -62 -53 -65 -53
-3 0 -10 16 -16 35 -11 34 -10 35 44 81 47 41 54 50 48 73 -4 14 -8 28 -10 30
-3 2 -31 -6 -64 -19 -59 -22 -81 -21 -81 3 0 7 -11 35 -24 63 l-24 52 25 24
25 25 -32 51 c-29 48 -33 50 -64 45 -28 -4 -36 -1 -46 17 -7 13 -46 68 -88
122 -61 82 -73 102 -60 109 8 4 71 51 139 103 68 52 125 95 126 95 1 1 29 -36
63 -81z m-3488 -179 c76 -51 138 -94 138 -96 0 -17 -36 -53 -48 -48 -28 11
-272 179 -272 187 0 18 21 48 33 48 6 0 73 -41 149 -91z m-261 -139 c25 -14
24 -31 -6 -90 -14 -27 -25 -53 -25 -58 0 -10 59 -38 63 -31 2 2 14 28 27 57
20 44 27 51 44 46 39 -12 41 -22 13 -80 -16 -31 -27 -57 -25 -58 2 0 18 -9 36
-19 l32 -18 33 70 c17 39 35 70 39 71 4 0 18 -4 32 -10 l26 -9 -46 -98 c-25
-54 -48 -101 -52 -105 -4 -3 -54 16 -112 44 -58 27 -126 59 -152 70 -27 11
-48 24 -48 29 0 13 88 199 95 199 4 0 15 -5 26 -10z m16 -325 c84 -25 155 -45
158 -45 2 0 -1 -13 -6 -30 -6 -16 -16 -30 -23 -30 -7 0 -50 11 -96 24 -47 14
-86 24 -87 22 -2 -1 38 -24 87 -50 90 -47 102 -62 80 -96 -7 -11 -27 -14 -87
-12 -43 1 -90 5 -105 8 -16 3 -28 4 -28 1 0 -3 45 -17 101 -32 99 -27 100 -28
94 -54 -4 -14 -8 -28 -11 -30 -4 -4 -130 29 -251 67 -79 25 -82 27 -76 51 12
51 23 71 35 67 7 -3 60 -7 118 -10 l105 -6 -102 55 c-74 41 -103 61 -103 75 0
29 18 70 31 70 6 0 81 -20 166 -45z m4131 -202 c32 -137 32 -145 -1 -154 -30
-8 -30 -7 -41 44 -8 34 -11 34 -163 -1 -131 -31 -133 -30 -133 22 0 20 8 25
58 35 31 7 92 20 134 29 l77 17 -6 38 c-6 41 5 57 39 57 12 0 21 -20 36 -87z
m-4196 -134 c39 -9 63 -22 91 -49 32 -33 37 -44 37 -85 0 -110 -67 -163 -189
-151 -36 4 -79 15 -96 25 -107 62 -95 218 20 259 40 14 74 14 137 1z m4248
-224 c0 -19 -3 -35 -7 -36 -75 -8 -330 -24 -335 -22 -5 2 -8 19 -8 38 l0 33
108 7 c59 3 116 7 127 9 11 2 41 4 68 5 l47 1 0 -35z m-222 -122 c-2 -30 -8
-38 -28 -43 -32 -7 -49 -52 -30 -75 26 -32 53 -14 90 60 31 62 39 71 72 79 74
18 128 -32 128 -118 0 -56 -38 -104 -85 -108 -27 -3 -30 0 -33 30 -3 26 1 34
21 41 44 17 47 85 4 79 -16 -2 -31 -22 -55 -70 -28 -55 -39 -69 -68 -78 -47
-16 -89 -4 -120 33 -23 27 -26 38 -22 89 6 77 41 116 106 117 21 1 23 -3 20
-36z m-3920 -20 l-3 -38 -67 -3 -68 -3 0 -51 0 -50 73 3 72 4 3 -32 c3 -30 2
-32 -40 -37 -24 -3 -103 -7 -176 -10 l-133 -5 3 37 3 37 63 3 62 3 0 49 0 50
-67 -3 -68 -2 -3 37 -3 37 118 4 c65 1 144 4 176 5 l58 2 -3 -37z m-143 -465
l46 -23 39 23 c22 12 42 22 46 22 3 0 3 -24 0 -53 -7 -50 -6 -53 29 -87 41
-40 44 -50 11 -50 -64 0 -85 -11 -103 -56 -10 -24 -21 -44 -26 -44 -4 0 -17
20 -29 45 -20 42 -25 45 -70 51 -27 4 -51 10 -53 14 -3 4 13 24 34 43 22 20
38 37 36 39 -5 7 -16 98 -11 98 3 0 26 -10 51 -22z m4000 0 l45 -22 46 22 c26
13 48 21 50 19 2 -2 0 -25 -5 -52 -9 -46 -8 -48 25 -77 47 -41 43 -54 -16 -62
-48 -6 -52 -9 -72 -51 -12 -25 -25 -45 -29 -45 -4 0 -15 20 -25 45 -18 43 -21
44 -71 51 -29 3 -53 9 -53 13 0 4 16 23 36 42 36 35 38 51 18 122 -7 22 -4 22
51 -5z m-3571 -538 c102 -164 275 -361 426 -483 250 -202 535 -330 875 -394
112 -20 389 -28 522 -14 354 37 725 194 1000 424 155 129 312 308 408 466 20
34 40 61 43 61 4 0 45 -75 92 -166 l85 -166 135 6 c131 6 237 9 253 7 4 -1
-16 -38 -44 -83 -471 -762 -1289 -1218 -2179 -1218 -603 0 -1157 199 -1629
584 -204 166 -435 436 -572 667 l-30 52 198 -6 198 -7 83 165 c46 91 87 165
91 165 5 0 25 -27 45 -60z"/>
<path d="M1946 4733 c-15 -4 -17 -11 -13 -40 4 -20 8 -37 9 -39 9 -8 87 20 92
33 16 39 -27 62 -88 46z"/>
<path d="M2950 4688 c-20 -22 -50 -105 -50 -138 0 -30 39 -70 69 -70 49 0 90
71 91 157 0 32 -5 45 -22 57 -31 22 -64 20 -88 -6z"/>
<path d="M3547 4421 l-18 -30 37 -25 c39 -26 59 -25 75 6 8 15 5 24 -21 48
-40 37 -51 37 -73 1z"/>
<path d="M2423 4055 c32 -28 24 -34 -12 -8 -18 12 -23 13 -19 2 2 -8 20 -22
39 -32 l34 -19 -30 7 c-16 3 -39 9 -50 12 -35 10 -9 -7 41 -28 31 -12 39 -18
22 -16 -34 5 -36 0 -5 -13 21 -8 20 -9 -8 -10 -26 -1 -27 -3 -10 -10 17 -7 17
-9 3 -9 -16 -1 -16 -3 2 -21 11 -11 25 -20 31 -20 5 0 27 -13 47 -29 51 -40
202 -131 219 -131 25 0 13 -18 -17 -23 -17 -4 -30 -13 -30 -21 0 -24 45 -70
93 -94 62 -31 77 -29 77 11 0 43 13 62 36 53 36 -14 179 -36 233 -36 46 0 60
-5 83 -27 16 -15 28 -21 28 -14 0 9 4 10 13 5 21 -16 93 -1 82 17 -9 14 -27
11 -19 -3 4 -7 3 -9 -1 -5 -10 8 -16 37 -8 37 2 0 14 -5 26 -11 21 -10 21 -10
3 5 -11 9 -24 16 -30 16 -5 0 -7 2 -4 5 3 3 24 -2 48 -10 58 -20 64 -10 9 14
-47 21 -44 27 8 12 46 -13 51 1 6 16 -33 11 -34 12 -8 8 17 -2 37 0 45 6 8 5
12 9 9 9 -98 2 -398 51 -445 72 -24 11 -24 11 -4 25 11 8 20 18 20 24 0 14
-34 11 -56 -6 -49 -37 -87 -20 -343 154 -155 105 -220 141 -158 86z"/>
<path d="M2313 3574 c-15 -33 -18 -65 -16 -194 l1 -155 -19 65 c-10 36 -18 73
-19 83 0 27 -12 20 -52 -33 -29 -38 -38 -59 -38 -90 0 -42 -9 -50 -30 -25 -12
14 -16 13 -42 -11 -26 -26 -28 -33 -28 -108 -1 -84 -23 -212 -33 -186 -3 8 -8
27 -11 42 -8 34 -36 27 -36 -8 0 -25 -15 -33 -23 -11 -14 43 -105 -127 -132
-251 -19 -87 -17 -104 18 -126 14 -9 31 3 99 69 46 44 111 107 146 140 l62 60
139 -139 138 -138 60 56 c34 31 65 56 69 56 5 0 34 -20 63 -44 30 -25 59 -42
65 -38 6 3 59 42 119 85 l107 79 -117 171 c-177 261 -225 331 -234 341 -4 5
-12 -10 -18 -32 -9 -34 -7 -55 15 -136 14 -54 24 -102 22 -107 -2 -6 -23 39
-47 99 -42 107 -43 112 -36 188 l6 79 -82 120 c-45 66 -85 124 -90 129 -5 6
-16 -7 -26 -30z"/>
<path d="M3100 3205 c-23 -112 -40 -147 -40 -84 0 17 -3 29 -7 27 -56 -27 -62
-33 -68 -67 -6 -29 -9 -32 -14 -17 -9 24 -15 15 -30 -41 -7 -24 -25 -65 -42
-92 l-31 -49 38 -56 c33 -50 39 -55 55 -44 113 80 409 303 409 309 0 8 -225
222 -238 227 -5 1 -19 -50 -32 -113z"/>
<path d="M3448 3063 l-77 -78 -39 -140 c-22 -77 -44 -158 -50 -180 l-10 -40
-1 40 -2 40 -22 -26 c-12 -14 -28 -35 -35 -45 -12 -18 -13 -18 -7 -1 7 27 -2
21 -129 -72 -114 -84 -115 -85 -121 -133 -4 -26 -9 -48 -11 -48 -7 0 -60 33
-291 183 -40 26 -76 47 -80 47 -4 0 -26 -25 -48 -55 -35 -47 -52 -59 -139
-100 -54 -25 -100 -44 -103 -42 -2 3 19 25 47 50 27 25 50 48 50 52 0 4 -47
61 -105 127 l-105 119 -16 -36 c-8 -21 -21 -67 -28 -104 -7 -36 -15 -59 -18
-51 -4 8 -9 24 -12 34 -6 18 -8 18 -31 -4 -16 -15 -25 -35 -25 -54 -1 -29 -2
-30 -14 -13 -14 18 -16 17 -53 -16 -34 -30 -333 -196 -333 -184 0 3 32 35 70
73 39 37 68 74 66 81 -3 7 -92 114 -198 239 -106 125 -222 262 -258 305 l-65
78 -24 -47 c-13 -25 -29 -78 -36 -117 -12 -68 -17 -70 -30 -12 -4 23 -9 26
-19 18 -8 -6 -17 -26 -21 -44 -7 -30 -8 -31 -14 -8 -9 33 -21 15 -61 -92 -19
-49 -39 -91 -46 -94 -7 -3 -16 -32 -19 -69 -4 -35 -11 -64 -15 -64 -4 0 -12
18 -19 40 -6 22 -14 40 -17 40 -3 0 -19 -8 -35 -17 -24 -14 -29 -24 -29 -55 0
-44 -15 -50 -25 -11 l-7 28 -19 -25 c-44 -56 -47 -70 -38 -168 12 -119 55
-289 108 -422 114 -294 335 -570 599 -749 l58 -39 329 -11 c182 -6 427 -13
545 -17 617 -18 607 -21 -79 -22 -411 -1 -691 -6 -685 -11 18 -18 221 -99 309
-125 261 -74 585 -80 847 -15 104 26 238 74 323 116 88 43 195 105 195 113 0
3 -177 11 -392 18 -216 7 -550 18 -743 25 l-350 12 789 3 789 2 53 45 c239
205 415 463 508 746 19 57 33 105 31 107 -1 1 -87 -2 -191 -8 -104 -5 -219
-10 -256 -10 -63 0 -68 2 -68 21 0 18 -4 20 -25 15 -29 -7 -30 -6 -11 39 10
22 11 35 4 35 -6 0 -7 7 -3 18 4 9 9 28 11 42 8 60 13 79 24 101 l13 23 14
-27 c8 -15 11 -32 8 -37 -3 -5 1 -20 10 -34 12 -17 13 -25 4 -28 -9 -3 -8 -10
2 -27 11 -18 11 -25 2 -28 -10 -4 -9 -11 2 -33 21 -40 19 -48 -10 -42 -18 3
-25 0 -25 -12 0 -20 8 -20 95 2 58 15 71 22 73 40 3 18 -2 22 -22 22 -30 0
-31 8 -12 55 10 23 11 35 4 37 -7 3 -7 12 2 28 9 17 10 25 2 28 -8 2 -7 12 4
33 8 16 12 34 9 39 -6 10 15 60 25 60 10 0 31 -50 25 -60 -3 -5 1 -23 9 -39
11 -21 12 -31 4 -33 -8 -3 -7 -11 2 -28 9 -17 10 -25 2 -28 -8 -2 -7 -14 3
-39 20 -48 19 -53 -10 -53 -16 0 -25 -6 -25 -15 0 -18 7 -18 68 -4 50 12 78
29 49 29 -17 0 -23 20 -11 33 4 4 8 24 9 45 3 46 13 82 24 82 8 0 18 -44 28
-120 2 -19 6 -36 8 -38 4 -4 123 28 146 39 11 6 18 28 23 71 3 35 9 86 12 113
l6 51 -77 84 c-76 85 -83 90 -192 124 l-23 7 26 -67 c13 -36 32 -80 40 -96 32
-62 -8 -13 -96 118 -51 75 -90 138 -87 140 3 3 35 -2 71 -11 37 -8 70 -15 73
-15 6 0 -107 127 -212 237 l-70 74 -77 -78z m-2212 -733 c3 -19 7 -51 9 -70 2
-19 6 -47 10 -62 5 -18 3 -28 -3 -28 -7 0 -6 -15 3 -41 20 -55 19 -59 -10 -59
-20 0 -25 -5 -25 -25 0 -14 -4 -25 -10 -25 -5 0 -10 11 -10 25 0 20 -5 25 -24
25 -24 0 -24 0 -10 47 10 31 11 49 4 53 -7 4 -5 19 5 44 11 25 12 35 4 30 -9
-5 -10 1 -5 22 4 16 8 38 9 49 2 11 9 38 16 60 14 38 14 39 23 15 6 -14 12
-41 14 -60z m179 -41 c9 -17 14 -33 11 -36 -3 -3 1 -18 10 -34 9 -18 11 -29 4
-29 -6 0 -8 -5 -4 -12 4 -6 9 -26 10 -42 1 -17 5 -41 9 -53 6 -20 4 -23 -19
-23 -19 0 -26 -5 -26 -20 0 -11 -4 -20 -10 -20 -5 0 -10 9 -10 20 0 16 -7 20
-30 20 l-31 0 16 31 c9 17 14 37 11 46 -3 8 -1 23 4 34 8 13 7 19 0 19 -6 0
-5 11 4 29 9 16 13 31 11 33 -5 5 14 68 21 68 2 0 11 -14 19 -31z m-344 -82
c7 -23 12 -46 10 -51 -1 -4 4 -15 11 -23 9 -11 9 -16 0 -22 -9 -5 -8 -12 3
-27 21 -28 18 -34 -15 -34 -22 0 -30 -5 -30 -17 -1 -17 -1 -17 -14 0 -7 9 -23
17 -35 17 -25 0 -26 8 -6 34 11 15 12 22 3 27 -9 6 -9 11 0 22 7 8 12 19 11
23 -3 12 11 64 23 87 13 25 25 13 39 -36z m2180 22 c10 -12 26 -42 36 -67 9
-26 25 -62 35 -81 37 -72 11 -120 -64 -122 -66 -1 -179 -23 -176 -34 2 -6 6
-9 9 -8 4 1 43 -36 89 -82 45 -47 86 -85 91 -85 21 0 129 -61 138 -78 9 -18 9
-44 -4 -139 -6 -39 -4 -43 14 -43 17 0 21 -6 21 -30 0 -27 -3 -30 -30 -30 -27
0 -30 3 -31 33 -1 23 -3 26 -6 9 -6 -31 -23 -17 -23 19 0 18 -9 39 -25 54 -21
22 -33 25 -94 25 -89 0 -114 -12 -151 -72 l-30 -48 -119 0 c-86 0 -121 3 -124
13 -3 7 -6 5 -6 -5 -1 -17 -18 -18 -213 -19 -117 0 -221 -2 -231 -4 -14 -3
-25 10 -44 53 -14 31 -30 60 -36 64 -7 4 -53 8 -104 8 -89 0 -92 -1 -111 -27
-10 -16 -24 -43 -31 -60 -8 -18 -19 -33 -25 -34 -63 -4 -418 -5 -420 0 -2 3
-7 29 -10 56 -3 28 -10 84 -15 125 -19 142 -24 185 -24 200 0 26 40 319 48
358 l5 22 295 0 c288 0 295 0 295 20 0 30 50 28 51 -2 l2 -23 4 23 c4 19 11
22 54 22 44 0 49 -2 50 -22 l2 -23 4 23 c6 30 53 32 53 2 0 -19 7 -20 110 -20
104 0 110 1 127 25 l18 24 289 1 c281 0 289 -1 307 -21z m-995 -733 c26 -26
34 -42 34 -69 0 -53 -16 -85 -52 -107 -103 -63 -218 43 -163 150 21 42 53 60
103 60 37 0 50 -6 78 -34z m1012 18 c51 -35 66 -108 33 -158 -38 -57 -101 -71
-159 -36 -36 22 -52 54 -52 107 0 54 53 103 112 103 24 0 54 -7 66 -16z"/>
<path d="M3190 2207 c0 -20 9 -25 31 -20 28 8 24 33 -6 33 -14 0 -25 -6 -25
-13z m37 -3 c-3 -3 -12 -4 -19 -1 -8 3 -5 6 6 6 11 1 17 -2 13 -5z"/>
<path d="M3028 2173 c7 -3 16 -2 19 1 4 3 -2 6 -13 5 -11 0 -14 -3 -6 -6z"/>
<path d="M2986 2107 c3 -10 9 -15 12 -12 3 3 0 11 -7 18 -10 9 -11 8 -5 -6z"/>
<path d="M1803 2073 c26 -2 67 -2 90 0 23 2 2 3 -48 3 -49 0 -68 -1 -42 -3z"/>
<path d="M2253 2055 c0 -8 4 -12 9 -9 5 3 6 10 3 15 -9 13 -12 11 -12 -6z"/>
<path d="M2421 2054 c0 -11 3 -14 6 -6 3 7 2 16 -1 19 -3 4 -6 -2 -5 -13z"/>
<path d="M2191 2034 c0 -11 3 -14 6 -6 3 7 2 16 -1 19 -3 4 -6 -2 -5 -13z"/>
<path d="M1798 2023 c6 -2 18 -2 25 0 6 3 1 5 -13 5 -14 0 -19 -2 -12 -5z"/>
<path d="M1733 1955 c0 -38 2 -53 4 -32 2 20 2 52 0 70 -2 17 -4 1 -4 -38z"/>
<path d="M2193 1920 c0 -36 2 -50 4 -32 2 17 2 47 0 65 -2 17 -4 3 -4 -33z"/>
<path d="M1930 1949 c0 -5 5 -7 10 -4 6 3 10 8 10 11 0 2 -4 4 -10 4 -5 0 -10
-5 -10 -11z"/>
<path d="M3090 1896 c0 -2 8 -10 18 -17 15 -13 16 -12 3 4 -13 16 -21 21 -21
13z"/>
<path d="M1734 1750 c0 -74 1 -105 3 -67 2 37 2 97 0 135 -2 37 -3 6 -3 -68z"/>
<path d="M2763 1803 c9 -2 25 -2 35 0 9 3 1 5 -18 5 -19 0 -27 -2 -17 -5z"/>
<path d="M1760 1780 c0 -5 14 -10 30 -10 17 0 30 5 30 10 0 6 -13 10 -30 10
-16 0 -30 -4 -30 -10z"/>
<path d="M2317 1613 c-4 -3 -7 -17 -7 -30 0 -16 6 -23 20 -23 15 0 20 6 19 28
-2 23 -2 24 -6 5 -2 -13 -8 -23 -12 -23 -5 0 -6 11 -3 25 4 25 1 31 -11 18z"/>
<path d="M3320 1605 c0 -9 9 -15 25 -15 16 0 25 6 25 15 0 9 -9 15 -25 15 -16
0 -25 -6 -25 -15z"/>
<path d="M1733 1520 c0 -41 2 -58 4 -37 2 20 2 54 0 75 -2 20 -4 3 -4 -38z"/>
<path d="M2802 1555 c0 -16 2 -22 5 -12 2 9 2 23 0 30 -3 6 -5 -1 -5 -18z"/>
<path d="M2155 1446 c-25 -18 -16 -60 14 -64 31 -5 54 23 41 48 -13 24 -35 31
-55 16z m43 -29 c4 -20 -25 -34 -40 -19 -15 15 -1 44 19 40 10 -2 19 -11 21
-21z"/>
<path d="M2091 1414 c0 -11 3 -14 6 -6 3 7 2 16 -1 19 -3 4 -6 -2 -5 -13z"/>
<path d="M2163 1333 c9 -2 23 -2 30 0 6 3 -1 5 -18 5 -16 0 -22 -2 -12 -5z"/>
<path d="M3176 1441 c-25 -28 -5 -63 32 -59 34 4 44 45 16 65 -23 17 -28 17
-48 -6z m52 -24 c4 -20 -25 -34 -40 -19 -15 15 -1 44 19 40 10 -2 19 -11 21
-21z"/>
<path d="M3282 1420 c0 -14 2 -19 5 -12 2 6 2 18 0 25 -3 6 -5 1 -5 -13z"/>
<path d="M3254 1358 l-19 -23 23 19 c12 11 22 21 22 23 0 8 -8 2 -26 -19z"/>
<path d="M3193 1333 c9 -2 23 -2 30 0 6 3 -1 5 -18 5 -16 0 -22 -2 -12 -5z"/>
<path d="M4230 3627 c-25 -5 -46 -11 -48 -12 -4 -3 32 -65 38 -65 3 0 26 20
50 45 48 49 45 52 -40 32z"/>
<path d="M4408 3388 c-33 -11 -33 -16 -11 -63 12 -24 23 -35 39 -35 36 0 46
21 31 65 -15 44 -21 47 -59 33z"/>
<path d="M262 2880 c-39 -64 -2 -103 103 -108 65 -4 74 -2 94 19 52 56 1 111
-109 117 -68 4 -69 4 -88 -28z"/>
<path d="M753 1535 c4 -5 1 -15 -6 -24 -20 -23 -30 -54 -15 -45 8 5 9 2 5 -10
-4 -10 -7 -20 -7 -22 0 -2 -5 -4 -11 -4 -5 0 -7 6 -4 13 4 6 0 4 -8 -5 -16
-20 -16 -43 1 -78 l13 -25 -17 23 c-19 26 -34 29 -34 5 0 -9 -7 -25 -17 -35
-15 -17 -15 -19 1 -37 14 -16 15 -20 2 -30 -12 -10 -14 -9 -9 8 6 24 -9 28
-27 7 -8 -11 -18 -12 -36 -5 -17 6 -23 6 -19 -1 3 -6 1 -10 -4 -10 -6 0 -11 4
-11 8 0 12 -208 14 -215 2 -3 -5 -1 -10 5 -10 6 0 8 -5 4 -11 -4 -8 -1 -8 13
-1 15 9 19 7 20 -9 1 -10 -2 -21 -8 -24 -5 -3 -6 2 -3 12 5 14 4 15 -4 4 -14
-20 3 -52 23 -45 8 4 15 1 15 -6 0 -9 3 -10 14 -1 18 15 31 -15 15 -35 -13
-16 -4 -48 11 -39 5 3 7 0 4 -8 -3 -8 3 -20 13 -28 16 -12 17 -12 6 2 -10 13
-10 16 1 16 9 0 13 -9 11 -23 -1 -16 4 -26 17 -29 10 -4 16 -11 13 -16 -4 -5
-1 -9 4 -9 6 0 11 -6 11 -13 0 -8 10 -22 22 -33 22 -19 22 -19 8 0 -13 17 -13
19 0 14 8 -2 17 -14 20 -25 8 -31 82 -113 99 -110 11 1 15 -4 13 -17 -3 -13 1
-17 12 -13 10 4 13 1 9 -8 -3 -9 3 -18 13 -22 10 -3 31 -21 46 -39 20 -22 36
-31 50 -29 28 6 34 13 21 26 -6 6 -9 19 -7 28 3 9 -2 4 -11 -11 -8 -16 -17
-28 -19 -28 -8 0 -3 51 5 56 5 3 9 10 9 15 0 6 -4 8 -8 5 -4 -2 -14 -1 -22 5
-13 7 -12 9 3 9 9 0 17 7 17 15 0 8 -7 15 -15 15 -17 0 -20 26 -4 36 6 3 15 0
20 -7 6 -10 9 -6 9 14 0 16 -4 26 -10 22 -5 -3 -10 -2 -10 4 0 5 4 12 9 16 5
3 8 19 6 35 -2 17 0 28 5 25 4 -3 11 1 13 7 4 10 6 9 6 -1 1 -12 4 -11 19 2
17 15 21 17 44 17 6 0 9 3 5 6 -8 8 14 30 38 38 11 3 46 8 79 10 58 4 59 3 99
-38 50 -52 63 -110 37 -168 -9 -21 -20 -35 -23 -31 -4 3 -7 1 -7 -5 0 -6 5
-14 10 -17 14 -9 5 -21 -20 -28 -11 -3 -17 -1 -14 5 3 5 -2 19 -13 31 l-18 22
23 -19 c12 -11 22 -14 22 -9 0 6 -15 18 -34 27 -27 13 -34 21 -32 41 2 13 9
31 16 40 10 12 10 15 0 15 -7 0 -10 7 -6 16 3 8 2 12 -3 9 -5 -3 -12 -1 -16 5
-3 5 -12 10 -18 10 -7 0 -6 -4 3 -10 12 -8 12 -10 -5 -10 -16 -1 -13 -4 10
-15 17 -7 23 -14 15 -15 -8 -1 -23 -3 -32 -5 -18 -3 -22 6 -18 35 1 10 -6 7
-24 -9 -26 -25 -36 -48 -14 -35 8 5 9 2 5 -10 -4 -10 -3 -15 3 -11 14 9 68
-25 73 -46 3 -12 0 -16 -10 -12 -25 10 -10 -20 15 -32 31 -14 29 -58 -3 -79
-27 -18 -34 -42 -9 -32 10 4 13 2 8 -7 -5 -8 -3 -8 7 1 8 7 14 18 14 25 0 7 8
12 17 12 9 0 20 4 25 9 4 5 3 6 -4 2 -7 -4 -13 -2 -13 3 0 6 9 11 20 11 11 0
20 5 20 10 0 16 63 70 76 66 7 -3 27 12 45 32 19 20 27 32 19 27 -9 -6 -8 -2
3 7 19 17 52 14 41 -4 -4 -6 -1 -9 7 -6 19 6 39 -16 51 -59 7 -27 7 -38 -4
-44 -7 -5 -8 -9 -3 -9 6 0 16 -9 23 -21 11 -17 11 -20 0 -13 -19 12 -39 14
-32 3 3 -5 0 -9 -5 -9 -6 0 -11 -7 -11 -15 0 -8 5 -15 10 -15 6 0 10 -4 10
-10 0 -5 -8 -6 -17 -3 -12 5 -15 2 -10 -10 3 -9 2 -19 -4 -22 -5 -4 -9 -12 -8
-18 1 -7 -1 -20 -6 -30 -4 -9 -5 -33 -3 -52 2 -22 -1 -36 -9 -39 -7 -3 -13
-12 -13 -21 0 -8 -3 -15 -7 -16 -5 0 -18 -2 -30 -3 -13 -2 -21 0 -18 2 3 3 -5
12 -16 20 -15 10 -20 22 -17 43 4 23 2 26 -12 19 -12 -6 -17 -5 -17 6 0 7 4
14 9 14 4 0 0 8 -10 18 -17 19 -32 19 -32 1 0 -5 8 -9 18 -10 14 0 14 -2 -3
-9 -13 -6 -15 -9 -5 -9 13 -1 13 -2 0 -11 -8 -5 -19 -10 -25 -10 -5 0 -4 4 4
9 11 7 10 11 -5 20 -12 6 -14 11 -5 11 8 0 11 6 7 16 -4 10 -2 13 7 8 9 -5 9
-4 0 6 -9 10 -15 9 -29 -5 -10 -10 -27 -15 -41 -12 -13 2 -25 1 -28 -2 -2 -4
6 -8 17 -8 26 -2 32 -9 23 -23 -5 -9 -10 -9 -14 -1 -7 11 -51 4 -51 -10 0 -4
5 -11 12 -15 6 -4 8 -3 5 3 -4 6 -1 13 7 16 9 4 12 0 9 -13 -5 -18 31 -47 51
-42 5 2 12 -2 16 -8 7 -12 40 -3 40 11 0 5 7 9 15 9 8 0 15 -4 15 -9 0 -5 9
-12 19 -16 13 -4 18 -13 16 -31 -3 -32 32 -69 51 -53 17 14 63 19 70 8 3 -5
-1 -9 -9 -9 -25 0 -28 -29 -5 -41 18 -10 24 -8 38 11 l16 22 -2 -31 c-1 -22 2
-28 13 -24 11 4 12 8 2 13 -6 5 1 7 18 6 16 -2 35 -6 42 -10 6 -4 18 -2 26 4
11 9 15 9 15 1 0 -6 -5 -11 -11 -11 -5 0 -7 -5 -4 -10 5 -8 11 -7 21 1 9 7 14
8 14 1 0 -6 -4 -12 -8 -14 -4 -2 -2 -14 5 -28 l13 -25 0 28 c0 15 4 27 9 27 5
0 7 9 4 19 -5 18 -62 38 -100 34 -8 0 -10 14 -8 43 2 26 -1 44 -7 44 -5 0 -7
-7 -4 -16 4 -11 2 -15 -8 -11 -9 4 -17 -1 -21 -13 -5 -17 -8 -17 -44 -2 -30
13 -37 21 -31 32 4 8 8 17 7 20 0 6 30 76 49 113 9 15 12 32 8 39 -4 7 -3 8 4
4 8 -5 12 0 12 13 0 12 5 21 10 21 6 0 8 10 5 23 -4 13 1 30 10 42 16 20 16
19 10 -5 -5 -19 -4 -22 4 -10 6 8 11 25 11 38 0 20 5 22 35 20 19 -1 35 -6 35
-10 0 -4 7 -5 15 -2 8 4 15 1 15 -6 0 -6 5 -8 11 -4 7 4 10 -5 9 -27 -3 -51
-1 -61 10 -54 15 9 12 -4 -5 -21 -13 -14 -15 -13 -16 3 -1 10 -7 -9 -14 -42
-7 -33 -12 -61 -10 -63 7 -8 36 32 31 44 -3 8 1 14 9 14 7 0 17 5 21 12 5 7 2
9 -9 5 -11 -4 -14 -2 -10 9 3 8 11 13 17 11 6 -2 26 12 44 30 32 33 34 34 58
19 13 -9 24 -14 24 -10 0 3 9 -4 19 -17 17 -21 18 -26 5 -40 -8 -9 -12 -24 -8
-33 3 -9 1 -16 -5 -16 -6 0 -8 -7 -4 -17 4 -11 3 -14 -5 -9 -7 4 -12 2 -12 -4
0 -24 25 -2 35 31 19 64 43 85 78 67 22 -11 22 -4 0 18 -17 17 -17 18 1 11 12
-5 22 -3 27 5 4 7 11 9 16 5 4 -5 1 -12 -7 -17 -12 -7 -12 -11 0 -25 7 -9 22
-14 31 -12 10 3 20 0 22 -6 2 -6 9 -7 16 -3 9 6 8 11 -6 21 -16 13 -13 14 22
10 53 -5 54 -6 25 -15 -24 -8 -23 -8 7 -9 23 -1 37 5 45 19 7 11 20 20 28 20
13 0 13 -1 0 -10 -8 -5 -10 -10 -4 -10 6 0 11 -7 11 -16 0 -10 -7 -14 -17 -11
-13 3 -16 0 -13 -14 3 -11 10 -19 15 -19 5 0 6 5 3 10 -3 5 -1 10 4 10 6 0 11
-7 11 -16 0 -12 7 -15 25 -12 13 3 22 1 19 -3 -3 -5 0 -18 6 -29 6 -11 7 -20
2 -20 -4 0 -13 -24 -19 -52 -9 -41 -9 -55 1 -63 7 -5 15 -17 19 -25 3 -8 6 4
6 28 1 26 -3 41 -9 37 -11 -7 -11 9 0 45 7 22 8 22 10 5 2 -11 6 -2 9 20 3 23
2 43 -4 47 -15 11 7 10 24 -1 10 -7 19 -4 29 7 7 9 11 12 8 6 -5 -11 19 -36
48 -47 9 -4 15 -11 11 -17 -3 -5 -1 -27 5 -49 8 -32 14 -39 28 -34 14 5 15 3
5 -8 -17 -17 -16 -26 2 -26 10 0 15 11 15 34 0 18 -5 33 -11 33 -5 0 -8 -4 -5
-8 3 -5 -1 -9 -9 -9 -18 0 -18 7 -2 28 7 9 18 14 25 11 10 -3 12 4 9 26 -6 35
4 42 51 34 22 -3 32 -1 32 9 0 11 2 11 13 0 10 -11 10 -14 0 -18 -25 -9 -14
-31 15 -28 32 2 95 39 85 49 -4 4 1 4 11 0 11 -4 22 -1 28 7 7 10 11 11 14 2
3 -7 19 -10 42 -6 28 3 33 2 22 -6 -9 -6 -10 -11 -3 -11 6 0 20 -3 30 -6 15
-5 15 -4 3 5 -13 9 -13 11 3 11 18 0 21 -4 32 -55 6 -29 7 -29 21 -11 10 15
14 16 14 5 0 -8 -6 -21 -12 -28 -7 -7 -8 -11 -3 -9 11 3 15 -4 15 -28 0 -8 -4
-13 -9 -9 -12 7 -24 -12 -16 -25 4 -7 14 -6 28 1 l22 12 -20 -22 c-16 -19 -17
-24 -5 -32 11 -8 12 -12 3 -16 -7 -2 -13 -12 -13 -20 0 -12 3 -13 13 -4 11 8
13 3 10 -27 -2 -20 -5 -49 -6 -64 -1 -16 -5 -28 -9 -28 -3 0 -4 -10 0 -22 5
-22 4 -22 -15 -5 -11 9 -23 14 -27 10 -4 -5 -13 -1 -20 8 -10 14 -15 15 -30 4
-17 -13 -17 -14 1 -25 17 -11 17 -11 -2 -5 -11 4 -46 10 -78 14 -45 6 -60 4
-64 -6 -9 -23 -22 -14 -17 11 3 18 -3 30 -22 45 -14 11 -23 25 -19 31 3 5 1
10 -4 10 -7 0 -11 25 -11 61 0 33 -4 69 -10 79 -7 13 -6 19 4 23 7 3 16 15 19
26 5 20 4 20 -18 3 -18 -13 -24 -29 -27 -67 -5 -61 -2 -68 11 -24 9 33 9 33
10 -16 0 -34 -2 -45 -8 -36 -8 12 -11 9 -16 -11 -4 -15 -4 -36 0 -47 4 -13 2
-21 -5 -21 -8 0 -10 -10 -7 -26 3 -17 0 -28 -11 -32 -13 -5 -12 -7 4 -13 17
-7 17 -8 1 -8 -10 -1 -31 6 -47 14 -19 10 -30 11 -30 5 0 -6 -5 -8 -12 -4 -7
5 -9 2 -5 -9 4 -12 2 -14 -10 -10 -13 5 -32 -11 -33 -28 0 -13 244 -20 360
-12 82 6 114 12 112 21 -1 6 5 12 14 12 8 0 13 -4 10 -8 -3 -5 15 -10 39 -10
25 -1 45 2 45 7 0 5 17 8 38 6 20 -2 31 -1 24 2 -10 4 -8 9 7 20 16 10 26 11
41 3 15 -8 38 -6 90 6 38 10 70 21 70 25 0 4 10 5 21 2 15 -4 27 0 35 12 8 11
14 13 14 6 0 -16 41 -4 57 18 28 37 17 43 -72 37 -57 -3 -84 -2 -79 5 3 6 -4
21 -17 35 -19 21 -23 22 -33 8 -10 -13 -12 -13 -12 5 0 11 4 17 8 15 4 -3 8
-1 8 5 0 5 -4 12 -9 15 -5 3 -12 21 -15 40 -7 34 -29 41 -39 13 -2 -7 -3 -3
-1 8 2 11 -1 27 -6 35 -7 11 -10 8 -10 -15 0 -16 -5 -37 -10 -45 -8 -11 -9 -7
-4 14 5 19 3 27 -3 23 -6 -4 -13 3 -17 16 -9 35 -7 87 4 87 6 0 10 5 10 10 0
14 -26 13 -49 -2 -16 -9 -24 -6 -52 22 -19 18 -29 30 -23 26 7 -3 17 1 23 8
16 19 0 28 -41 23 -18 -2 -25 -2 -15 0 25 6 21 21 -5 21 -13 -1 -43 2 -68 5
-32 3 -36 2 -15 -3 l30 -7 -32 -2 c-17 0 -35 -6 -38 -11 -4 -6 -11 -8 -16 -4
-5 3 -7 10 -4 15 7 10 -67 12 -102 3 -13 -4 -21 -10 -18 -14 3 -5 -11 -4 -31
1 -20 6 -42 8 -50 5 -9 -3 -12 -1 -9 4 4 6 -20 11 -62 11 -162 4 -193 7 -275
28 -48 12 -93 19 -99 15 -8 -5 -9 -3 -4 6 6 9 2 10 -15 5 -16 -5 -20 -4 -15 5
6 9 2 9 -15 0 -19 -10 -25 -8 -45 10 -13 12 -28 19 -33 16 -5 -3 -34 7 -63 23
-30 16 -63 31 -74 33 -11 2 -26 9 -33 16 -15 13 -49 8 -97 -16 -22 -10 -27
-11 -17 -1 14 15 16 33 3 25 -5 -3 -12 1 -15 10 -5 12 -16 15 -42 12 -26 -3
-38 0 -44 13 -7 12 -5 19 5 23 8 3 15 1 15 -5 0 -6 4 -8 9 -4 5 3 12 1 16 -5
9 -15 22 -12 22 4 0 8 -6 12 -14 9 -8 -3 -13 2 -14 13 0 11 -3 14 -6 6 -2 -6
-9 -10 -14 -7 -5 3 -17 2 -26 -3 -13 -7 -22 -5 -32 5 -12 13 -11 14 6 9 11 -4
28 -3 37 0 15 6 13 9 -11 25 -15 11 -32 19 -38 19 -5 0 -3 -5 5 -10 11 -7 12
-10 2 -10 -8 0 -16 9 -19 20 -6 22 -36 35 -55 24 -10 -6 -10 -4 0 8 11 14 10
17 -7 23 -26 8 -41 -1 -41 -25 0 -13 -5 -18 -15 -14 -12 5 -13 9 -3 21 9 11 9
16 -1 23 -8 4 -10 13 -6 20 7 11 -21 50 -36 50 -4 0 -19 10 -32 23 -93 87
-130 119 -114 101 9 -11 14 -24 10 -27 -3 -4 -1 -7 5 -7 7 0 12 -6 12 -12 -1
-20 -50 44 -50 64 0 14 -7 17 -30 14 -33 -4 -37 1 -17 18 11 9 9 15 -10 33
-13 12 -23 18 -23 12 0 -6 -7 -4 -15 5 -18 18 -20 30 -2 21 6 -4 -1 6 -18 20
-16 15 -23 24 -15 19 13 -7 13 -5 1 9 -7 9 -17 15 -21 12 -5 -3 -12 0 -16 6
-4 8 -3 9 4 5 7 -4 12 -3 12 3 0 5 -4 11 -8 13 -4 2 -18 18 -31 36 -13 18 -29
31 -36 28 -9 -3 -12 3 -10 19 1 17 -6 30 -24 41 -14 9 -23 13 -18 9z m24 -47
c-3 -8 -6 -5 -6 6 -1 11 2 17 5 13 3 -3 4 -12 1 -19z m88 -136 c-2 -3 -12 1
-20 8 -13 11 -18 10 -31 -6 -16 -20 -8 2 9 24 8 10 14 9 28 -4 11 -10 17 -19
14 -22z m-185 -31 c0 -6 -4 -13 -10 -16 -5 -3 -10 1 -10 9 0 9 5 16 10 16 6 0
10 -4 10 -9z m17 -23 c-3 -8 -6 -5 -6 6 -1 11 2 17 5 13 3 -3 4 -12 1 -19z
m207 6 c3 -8 2 -12 -4 -9 -6 3 -10 10 -10 16 0 14 7 11 14 -7z m-201 -81 c-7
-2 -19 -2 -25 0 -7 3 -2 5 12 5 14 0 19 -2 13 -5z m76 -24 c-11 -7 -10 -9 3
-9 20 0 34 -56 22 -92 -4 -12 -7 -27 -6 -32 2 -5 -4 -6 -13 -3 -8 4 -15 2 -15
-2 0 -5 6 -11 13 -13 6 -3 -3 -5 -21 -5 -20 0 -28 3 -20 8 8 5 5 8 -9 6 -12 0
-20 -4 -17 -9 2 -4 -5 -12 -17 -18 -16 -9 -24 -9 -33 1 -8 9 -8 10 3 4 27 -16
31 19 4 47 -18 19 -24 34 -21 52 3 14 1 26 -4 26 -5 0 -6 5 -3 10 4 6 9 8 13
6 4 -2 12 2 19 9 10 11 10 14 0 18 -7 2 17 4 52 4 39 1 58 -3 50 -8z m201 0
c0 -6 9 -8 23 -3 12 3 19 3 15 -1 -14 -14 -55 -13 -55 1 0 8 4 14 9 14 4 0 8
-5 8 -11z m-510 -39 c6 -11 8 -20 6 -20 -3 0 -10 9 -16 20 -6 11 -8 20 -6 20
3 0 10 -9 16 -20z m640 -24 c0 -3 -4 -8 -10 -11 -5 -3 -10 -1 -10 4 0 6 5 11
10 11 6 0 10 -2 10 -4z m-155 -46 c3 -6 -1 -7 -9 -4 -18 7 -21 14 -7 14 6 0
13 -4 16 -10z m-290 -10 c3 -5 1 -10 -4 -10 -6 0 -11 5 -11 10 0 6 2 10 4 10
3 0 8 -4 11 -10z m265 0 c8 -5 11 -10 5 -10 -5 0 -17 5 -25 10 -8 5 -10 10 -5
10 6 0 17 -5 25 -10z m-290 -120 c0 -5 -9 -10 -20 -10 -11 0 -20 5 -20 10 0 6
9 10 20 10 11 0 20 -4 20 -10z m557 -32 c-1 -28 2 -42 9 -41 17 3 25 -37 9
-43 -17 -7 -35 3 -34 19 0 9 2 9 6 0 2 -7 12 -13 21 -13 13 1 11 6 -9 24 -19
16 -24 27 -18 37 12 19 11 32 -2 24 -6 -4 -5 2 3 14 7 12 14 21 15 21 1 0 1
-19 0 -42z m128 22 c-3 -5 -1 -10 6 -10 7 0 10 -3 6 -6 -9 -9 -28 6 -22 17 4
5 8 9 11 9 3 0 2 -4 -1 -10z m-667 -17 c-25 -6 -22 -22 5 -32 20 -8 21 -10 3
-16 -11 -5 -21 -3 -27 6 -5 8 -9 10 -9 5 0 -6 -6 -4 -12 3 -11 10 -9 15 6 27
11 8 27 13 35 13 13 -1 12 -2 -1 -6z m610 -11 c2 -7 -1 -12 -8 -12 -6 0 -9 4
-6 9 4 5 1 12 -4 14 -6 3 -5 4 2 3 6 -1 14 -8 16 -14z m-528 -21 c0 -6 -4 -13
-10 -16 -5 -3 -10 1 -10 9 0 9 5 16 10 16 6 0 10 -4 10 -9z m625 -21 c24 -26
26 -30 10 -30 -10 0 -15 3 -12 7 4 3 -5 17 -19 30 -14 12 -21 23 -16 23 4 0
21 -13 37 -30z m-292 -80 c-3 -3 -8 0 -10 7 -2 7 -10 10 -18 7 -7 -3 -16 -1
-20 5 -4 7 0 8 11 4 14 -5 16 -3 11 13 -5 14 -2 12 12 -6 11 -14 17 -27 14
-30z m102 40 c3 -5 1 -10 -4 -10 -6 0 -11 5 -11 10 0 6 2 10 4 10 3 0 8 -4 11
-10z m263 -51 c-9 -5 -24 -16 -32 -24 -12 -13 -15 -13 -20 1 -3 8 -2 13 2 10
5 -3 17 6 27 20 13 18 21 22 29 14 8 -8 6 -14 -6 -21z m52 9 c0 -16 -3 -19
-11 -11 -6 6 -8 16 -5 22 11 17 16 13 16 -11z m88 -10 c-19 -15 -8 -55 17 -64
8 -3 12 -10 9 -16 -8 -12 -39 21 -48 50 -4 13 -13 20 -19 16 -7 -3 -3 2 7 10
11 9 27 16 35 16 13 0 12 -2 -1 -12z m167 -46 c-6 -7 -45 9 -45 18 0 4 11 3
24 -3 14 -7 23 -13 21 -15z m-955 14 c0 -11 -19 -15 -25 -6 -3 5 1 10 9 10 9
0 16 -2 16 -4z m905 -16 c3 -5 1 -10 -4 -10 -6 0 -11 5 -11 10 0 6 2 10 4 10
3 0 8 -4 11 -10z m69 -18 c2 -4 -4 -8 -15 -8 -10 0 -19 4 -19 8 0 10 27 10 34
0z m-14 -64 c0 -6 -6 -5 -15 2 -8 7 -15 14 -15 16 0 2 7 1 15 -2 8 -4 15 -11
15 -16z m220 18 c0 -8 -51 -13 -56 -5 -3 5 9 9 25 9 17 0 31 -2 31 -4z m-100
-26 c0 -5 -4 -10 -10 -10 -5 0 -10 5 -10 10 0 6 5 10 10 10 6 0 10 -4 10 -10z
m237 -6 c-3 -3 -12 -4 -19 -1 -8 3 -5 6 6 6 11 1 17 -2 13 -5z m32 -39 c0 -5
-4 -3 -9 5 -8 13 -10 12 -10 -4 0 -11 -2 -17 -5 -14 -4 3 -3 18 1 34 6 25 8
26 15 9 4 -11 8 -24 8 -30z m-39 10 c0 -8 -4 -15 -10 -15 -5 0 -7 7 -4 15 4 8
8 15 10 15 2 0 4 -7 4 -15z m123 -16 c4 -16 3 -18 -9 -8 -7 6 -11 15 -8 20 8
13 11 11 17 -12z m144 15 c-3 -3 -12 -4 -19 -1 -8 3 -5 6 6 6 11 1 17 -2 13
-5z m170 0 c-3 -3 -12 -4 -19 -1 -8 3 -5 6 6 6 11 1 17 -2 13 -5z m98 -11
c-11 -3 -24 -9 -29 -14 -6 -5 -19 -9 -30 -9 -17 1 -15 4 9 15 17 7 39 13 50
13 l20 0 -20 -5z m100 -12 c3 -5 1 -12 -5 -16 -5 -3 -10 1 -10 9 0 18 6 21 15
7z m-495 -35 c0 -1 -8 -2 -18 -3 -10 -1 -23 7 -30 17 -10 17 -9 17 19 3 16 -8
29 -15 29 -17z m57 18 c-3 -3 -12 -4 -19 -1 -8 3 -5 6 6 6 11 1 17 -2 13 -5z
m136 -45 c-4 -4 -15 -3 -23 2 -12 9 -12 10 4 5 13 -5 17 -2 13 8 -3 8 -3 17 1
21 4 4 9 -1 10 -10 2 -9 0 -21 -5 -26z m297 27 c0 -11 -19 -15 -25 -6 -3 5 1
10 9 10 9 0 16 -2 16 -4z m-10 -66 c0 -11 -4 -20 -9 -20 -5 0 -7 9 -4 20 3 11
7 20 9 20 2 0 4 -9 4 -20z m-1453 -36 c-3 -3 -12 -4 -19 -1 -8 3 -5 6 6 6 11
1 17 -2 13 -5z m64 -68 c5 3 9 0 9 -6 0 -7 -7 -9 -16 -6 -9 3 -18 6 -20 6 -3
0 -2 5 2 12 6 9 9 9 12 0 2 -7 8 -10 13 -6z m69 10 c0 -3 -4 -8 -10 -11 -5 -3
-10 -1 -10 4 0 6 5 11 10 11 6 0 10 -2 10 -4z m1650 -148 c0 -3 6 -8 13 -11 6
-2 4 -3 -5 -2 -16 3 -23 -6 -19 -27 0 -5 -6 -8 -14 -8 -18 0 -20 17 -2 23 7 2
0 10 -16 19 l-29 15 36 -1 c20 -1 36 -4 36 -8z m67 6 c-3 -3 -12 -4 -19 -1 -8
3 -5 6 6 6 11 1 17 -2 13 -5z m-687 -44 c0 -5 -2 -10 -4 -10 -3 0 -8 5 -11 10
-3 6 -1 10 4 10 6 0 11 -4 11 -10z m446 -18 c-10 -2 -22 0 -28 6 -6 6 0 7 19
4 21 -5 23 -7 9 -10z m51 12 c-3 -3 -12 -4 -19 -1 -8 3 -5 6 6 6 11 1 17 -2
13 -5z m40 -8 c0 -8 -6 -12 -15 -9 -11 5 -11 7 0 14 7 5 13 9 14 9 0 0 1 -6 1
-14z m-467 -31 c0 -2 -6 -5 -13 -8 -8 -3 -14 1 -14 8 0 7 6 11 14 8 7 -3 13
-6 13 -8z m50 -5 c0 -5 -7 -10 -16 -10 -8 0 -12 5 -9 10 3 6 10 10 16 10 5 0
9 -4 9 -10z m31 -7 c12 -15 12 -16 -3 -10 -10 3 -18 2 -18 -3 0 -6 -5 -10 -10
-10 -6 0 -5 8 2 20 15 24 13 24 29 3z m-168 -13 c-10 -11 -22 -20 -28 -20 -5
0 -3 5 5 10 8 5 11 10 5 10 -5 0 -3 5 5 10 25 16 31 11 13 -10z m-43 -4 c0 -9
-9 -12 -25 -8 -29 5 -26 17 4 19 12 1 21 -4 21 -11z"/>
<path d="M4042 1506 c-17 -24 -21 -42 -17 -62 6 -26 5 -27 -8 -12 -10 13 -16
15 -25 6 -7 -7 -12 -16 -12 -21 0 -5 -9 -16 -20 -25 -11 -10 -22 -28 -25 -41
-5 -28 -23 -51 -39 -51 -19 0 -69 -57 -62 -69 4 -7 1 -9 -8 -5 -10 4 -14 0
-12 -12 2 -10 8 -20 14 -22 7 -2 12 -8 12 -13 0 -5 -12 -1 -27 8 -15 10 -24
12 -20 6 6 -9 1 -13 -13 -13 -12 0 -18 -4 -15 -10 3 -5 -1 -10 -9 -10 -9 0
-15 -6 -14 -12 2 -7 -3 -12 -11 -10 -12 3 -12 0 -1 -13 11 -14 14 -14 26 2 10
14 15 16 25 6 11 -11 10 -13 -3 -13 -9 0 -19 -4 -22 -9 -4 -5 4 -7 16 -3 15 4
19 2 13 -8 -5 -8 -3 -11 6 -8 8 3 19 -2 25 -11 10 -13 16 -13 39 -3 30 14 49
7 40 -15 -4 -13 -3 -13 9 -4 11 9 14 6 14 -15 0 -15 8 -34 20 -43 11 -9 18
-24 17 -34 -2 -11 -1 -17 1 -14 3 3 17 -1 31 -8 15 -8 31 -11 36 -8 6 4 7 1 2
-7 -4 -7 -2 -16 6 -21 8 -5 13 -25 12 -53 -1 -25 3 -46 8 -46 6 0 7 -5 4 -10
-4 -6 -10 -8 -14 -6 -9 6 -107 -95 -103 -107 1 -5 -2 -6 -8 -2 -5 3 -24 -3
-40 -15 -18 -13 -30 -16 -30 -10 0 7 -7 9 -15 6 -11 -4 -15 0 -13 12 2 9 -2
16 -9 15 -7 -2 -10 3 -7 11 3 8 -3 20 -13 27 -10 8 -25 27 -33 43 -14 28 -15
28 -18 7 -2 -15 -8 -21 -18 -17 -16 6 -14 0 18 -47 11 -15 20 -43 21 -62 1
-19 6 -35 11 -35 6 0 -6 -16 -25 -37 -19 -20 -27 -33 -17 -30 13 4 15 2 11
-10 -4 -10 -2 -14 5 -9 6 3 14 1 18 -5 5 -8 3 -9 -6 -4 -9 5 -11 4 -6 -4 10
-15 37 5 30 22 -2 7 6 18 18 26 18 10 20 10 11 0 -7 -7 -13 -16 -13 -20 0 -10
58 19 66 33 8 13 -15 28 -33 21 -9 -4 -13 3 -13 22 0 14 4 24 10 20 5 -3 6
-13 3 -23 -6 -15 -5 -15 10 -3 10 8 20 11 24 7 3 -3 0 -6 -7 -6 -9 0 -7 -5 5
-14 14 -10 22 -10 31 -2 6 6 10 14 7 18 -2 4 2 6 9 3 7 -3 40 19 73 49 57 52
59 55 31 53 -16 -1 -30 3 -32 11 -1 7 0 8 3 2 2 -5 12 -10 21 -10 15 0 15 2 2
10 -20 13 -4 13 21 -1 17 -8 23 -7 34 8 7 10 11 22 8 26 -3 5 4 6 15 3 11 -4
23 -2 27 4 3 5 1 10 -5 10 -6 0 -8 5 -5 10 4 6 11 7 17 4 6 -4 8 -2 4 4 -3 6
-2 13 4 17 5 3 10 0 10 -7 0 -7 11 -1 25 14 30 33 30 34 6 41 -13 3 -18 0 -15
-8 3 -8 -3 -12 -18 -11 -13 1 -34 -5 -48 -13 -19 -11 -22 -12 -12 -1 17 19 15
33 -3 26 -12 -4 -13 -2 -3 14 9 14 9 24 0 42 -10 18 -11 18 -7 3 5 -19 4 -19
-8 -3 -8 10 -17 15 -20 12 -7 -7 -4 12 7 44 4 12 14 22 22 22 8 0 14 5 14 10
0 15 23 12 46 -5 19 -15 19 -15 -1 -9 -14 5 -17 4 -10 -4 20 -20 65 -19 65 3
0 17 16 20 25 6 10 -16 46 -9 40 8 -3 9 -3 13 0 9 9 -8 42 25 48 49 3 12 5 10
6 -8 1 -17 -5 -29 -15 -33 -9 -4 -14 -9 -11 -12 3 -3 15 0 27 6 18 10 21 9 17
-2 -2 -7 -9 -12 -15 -11 -6 2 -9 -4 -6 -12 9 -23 104 99 97 125 -7 25 -20 26
-26 3 -4 -17 -5 -17 -6 0 -1 18 36 39 54 29 6 -3 1 5 -10 19 l-20 24 20 -15
c11 -8 23 -19 26 -24 4 -4 14 7 23 25 19 39 16 46 -9 19 -18 -20 -18 -20 -36
2 -24 27 -24 31 2 17 18 -9 25 -7 42 10 17 16 18 21 6 21 -8 0 -20 -5 -27 -12
-7 -7 -12 -8 -12 -2 0 14 50 37 51 24 1 -6 3 -14 4 -20 1 -5 3 -13 4 -17 1 -5
7 1 13 11 8 15 8 21 0 24 -7 2 -10 7 -8 11 7 11 -35 11 -56 0 -14 -7 -23 -7
-33 1 -13 10 -38 10 -157 -4 -16 -2 -28 2 -28 8 0 6 -5 4 -10 -4 -8 -12 -10
-12 -10 -1 0 10 -3 11 -13 2 -14 -11 -27 -5 -27 13 0 6 5 4 10 -4 8 -12 10 -8
11 15 1 17 3 22 6 13 2 -10 9 -18 14 -18 6 0 5 8 -1 20 -6 11 -15 20 -21 20
-6 0 -7 5 -3 11 3 6 -3 24 -14 39 -12 15 -24 40 -28 55 -5 19 -9 23 -15 14 -5
-9 1 -25 15 -44 19 -25 21 -34 12 -47 -14 -19 -58 -18 -63 2 -4 13 -3 13 6 0
5 -8 13 -11 17 -7 4 4 -1 16 -11 27 -14 16 -16 23 -7 32 9 9 12 9 12 -2 1 -18
28 -56 35 -48 3 3 0 16 -7 29 -26 48 -29 51 -44 38 -16 -13 -19 2 -3 18 8 8 8
13 0 17 -6 4 -11 2 -11 -5 0 -7 -2 -10 -5 -7 -12 11 8 58 24 59 13 0 14 2 1 6
-8 3 -17 10 -20 14 -3 4 -16 -7 -28 -25z m8 -30 c0 -3 -4 -8 -10 -11 -5 -3
-10 -1 -10 4 0 6 5 11 10 11 6 0 10 -2 10 -4z m-86 -108 c-3 -31 -3 -30 -14
-23 -7 4 -7 13 0 26 14 25 17 24 14 -3z m6 -52 c0 -3 -4 -8 -10 -11 -5 -3 -10
-1 -10 4 0 6 5 11 10 11 6 0 10 -2 10 -4z m163 -20 c3 -7 -3 -17 -12 -23 -15
-10 -18 -7 -18 17 0 28 20 32 30 6z m257 -36 c0 -13 -11 -13 -30 0 -12 8 -11
10 8 10 12 0 22 -4 22 -10z m-275 -20 c-4 -6 6 -10 22 -10 23 0 25 -2 13 -11
-11 -8 -7 -9 18 -5 17 3 32 2 32 -2 0 -4 -16 -9 -35 -10 -19 -2 -35 2 -35 8 0
5 -6 10 -14 10 -8 0 -16 7 -20 15 -3 9 0 15 10 15 8 0 12 -4 9 -10z m42 4 c-3
-3 -12 -4 -19 -1 -8 3 -5 6 6 6 11 1 17 -2 13 -5z m36 -91 c15 -15 17 -15 17
0 0 8 -6 18 -12 20 -7 3 -8 6 -3 6 27 2 36 -16 27 -57 -7 -27 -6 -41 0 -39 6
1 12 -6 13 -15 2 -12 -3 -18 -16 -18 -10 0 -19 5 -19 10 0 6 -9 10 -20 10 -11
0 -20 -7 -20 -15 0 -8 -6 -15 -14 -15 -8 0 -22 -3 -32 -7 -13 -5 -15 -3 -10 8
4 8 1 6 -6 -3 -15 -17 -48 -20 -60 -4 -4 6 -12 5 -20 -1 -10 -9 -13 -6 -13 12
0 13 3 21 8 18 4 -2 7 0 7 6 0 5 -4 12 -9 16 -5 3 -9 19 -9 37 1 28 2 29 15
13 12 -18 13 -18 13 1 0 27 29 66 46 60 8 -3 11 0 8 9 -6 16 78 -25 109 -52z
m-208 -2 c-3 -2 -18 -4 -34 -3 -23 0 -29 -3 -24 -15 5 -12 2 -14 -8 -9 -8 4
-2 -3 13 -16 l28 -24 -28 2 c-15 1 -30 3 -34 3 -5 1 -8 8 -8 16 0 8 -6 16 -12
17 -23 2 -33 5 -52 13 -19 8 -19 9 -1 15 11 4 33 4 49 0 17 -3 40 -2 51 3 11
6 27 13 35 17 14 7 34 -9 25 -19z m-126 -54 c14 4 14 3 1 -6 -21 -15 -27 -14
-35 7 -5 13 -3 14 6 5 6 -6 19 -9 28 -6z m493 -6 c2 7 8 6 17 -5 12 -14 12
-16 -3 -10 -12 5 -15 2 -10 -9 4 -11 0 -15 -12 -13 -10 2 -18 12 -19 24 -1 16
2 19 11 11 8 -7 13 -6 16 2z m-362 -81 c0 -5 -5 -10 -11 -10 -5 0 -7 5 -4 10
3 6 8 10 11 10 2 0 4 -4 4 -10z m0 -40 c0 -5 -4 -10 -10 -10 -5 0 -10 5 -10
10 0 6 5 10 10 10 6 0 10 -4 10 -10z m128 -150 c-13 -10 -25 -16 -27 -14 -7 7
33 42 42 37 4 -2 -3 -13 -15 -23z m47 20 c3 -5 1 -10 -4 -10 -6 0 -11 5 -11
10 0 6 2 10 4 10 3 0 8 -4 11 -10z m-105 -76 c0 -2 -7 -4 -15 -4 -8 0 -15 4
-15 10 0 5 7 7 15 4 8 -4 15 -8 15 -10z m-75 -43 c3 -5 2 -12 -3 -15 -5 -3 -9
1 -9 9 0 17 3 19 12 6z m15 -36 c0 -2 -9 -9 -20 -15 -16 -9 -18 -8 -14 5 5 13
34 22 34 10z m-190 -89 c0 -2 -7 -9 -15 -16 -13 -11 -14 -10 -9 4 5 14 24 23
24 12z"/>
<path d="M4174 1131 c1 -16 4 -27 9 -24 10 6 9 41 -2 47 -4 3 -8 -8 -7 -23z"/>
<path d="M4010 1101 c0 -5 7 -11 14 -14 10 -4 13 -1 9 9 -6 15 -23 19 -23 5z"/>
<path d="M4030 1060 c0 -4 12 -12 28 -19 23 -10 25 -9 10 2 -10 8 -16 16 -13
19 3 2 -2 5 -10 5 -8 0 -15 -3 -15 -7z"/>
<path d="M4092 1474 c7 -15 14 -21 16 -15 5 16 -5 41 -17 41 -7 0 -6 -10 1
-26z"/>
<path d="M388 1158 c8 -9 20 -14 28 -11 16 6 19 23 4 23 -5 0 -10 -5 -10 -11
0 -8 -6 -7 -17 2 -16 13 -17 12 -5 -3z"/>
<path d="M4410 1130 c0 -5 5 -10 11 -10 5 0 7 5 4 10 -3 6 -8 10 -11 10 -2 0
-4 -4 -4 -10z"/>
<path d="M3700 1123 c0 -4 12 -17 28 -30 15 -12 21 -22 15 -23 -7 0 -13 5 -13
10 0 6 -4 10 -10 10 -5 0 -7 -6 -4 -14 3 -8 1 -17 -5 -21 -6 -3 -11 1 -11 9 0
9 -5 16 -11 16 -6 0 -9 -7 -5 -15 3 -8 1 -15 -5 -15 -6 0 -7 -5 -4 -10 4 -6
10 -8 15 -5 4 3 11 -2 14 -11 5 -13 12 -10 37 15 17 17 38 31 47 31 11 1 5 7
-14 18 -18 9 -41 23 -53 30 -11 7 -21 9 -21 5z"/>
<path d="M3680 1100 c0 -5 5 -10 11 -10 5 0 7 5 4 10 -3 6 -8 10 -11 10 -2 0
-4 -4 -4 -10z"/>
<path d="M3655 1071 c6 -11 4 -13 -8 -8 -10 4 -21 -3 -32 -19 -9 -14 -20 -22
-25 -19 -15 9 -61 -42 -54 -59 7 -18 20 -21 29 -6 4 6 15 8 26 5 28 -9 23 8
-8 29 -16 9 -20 15 -10 12 12 -4 16 -2 11 6 -5 7 -3 8 6 3 7 -4 16 -2 21 6 7
11 9 11 9 1 0 -7 -7 -15 -15 -18 -12 -5 -10 -10 8 -25 16 -13 18 -18 7 -19
-13 0 -13 -1 0 -10 19 -12 4 -13 -19 -1 -10 6 -23 6 -31 1 -11 -7 -11 -11 -1
-24 8 -9 19 -16 25 -15 7 0 6 2 -1 6 -7 2 -13 9 -13 14 0 6 7 6 19 0 10 -6 21
-8 25 -4 3 3 13 -10 21 -30 15 -36 31 -54 18 -20 -5 12 -3 14 8 9 8 -4 5 0 -5
8 -22 18 -33 91 -13 84 15 -5 50 29 38 37 -5 3 -15 4 -23 2 -7 -2 -10 -2 -5 0
16 10 6 24 -13 18 -12 -4 -20 -2 -20 5 0 6 4 9 8 6 4 -2 14 -1 22 4 13 8 13
11 1 22 -11 11 -13 11 -6 -1z m-15 -71 c0 -5 -5 -10 -11 -10 -5 0 -7 5 -4 10
3 6 8 10 11 10 2 0 4 -4 4 -10z m35 0 c-3 -5 -12 -10 -18 -10 -7 0 -6 4 3 10
19 12 23 12 15 0z m-110 -20 c-3 -5 -12 -10 -18 -10 -7 0 -6 4 3 10 19 12 23
12 15 0z"/>
<path d="M853 994 c-3 -8 -12 -13 -20 -10 -8 4 -13 1 -11 -5 6 -18 20 -15 36
9 8 12 11 22 8 22 -4 0 -9 -7 -13 -16z"/>
<path d="M4266 993 c-3 -8 -3 -20 0 -26 3 -7 -2 -3 -11 8 -15 19 -15 19 -11
-5 2 -14 5 -27 6 -30 2 -3 2 -9 0 -15 -1 -5 5 -3 12 5 7 8 20 20 28 28 8 7 10
11 4 8 -7 -3 -14 1 -17 9 -4 9 -1 12 9 8 7 -3 14 -1 14 5 0 17 -28 22 -34 5z"/>
<path d="M3497 967 c-16 -11 -16 -14 -3 -32 14 -18 15 -18 16 -2 0 9 -5 17
-12 17 -6 0 -9 3 -5 6 3 4 21 -8 39 -26 23 -23 26 -30 11 -22 -14 8 -24 9 -28
2 -10 -16 3 -29 25 -23 32 9 32 20 1 52 -16 16 -26 32 -23 35 10 11 -4 6 -21
-7z"/>
<path d="M3812 959 c-13 -5 -21 -13 -17 -18 3 -5 1 -12 -5 -16 -5 -3 -10 -1
-10 4 0 6 -6 11 -12 11 -7 -1 -3 -9 9 -19 12 -10 21 -20 20 -22 -1 -2 5 3 14
11 9 8 12 17 8 18 -19 7 -8 23 11 17 15 -5 18 -3 14 9 -3 9 -7 16 -8 15 0 0
-11 -4 -24 -10z"/>
<path d="M4106 954 c-3 -8 0 -27 8 -42 14 -27 14 -27 13 15 -2 44 -10 55 -21
27z"/>
<path d="M813 945 c0 -8 4 -15 9 -15 4 0 8 4 8 9 0 6 -4 12 -8 15 -5 3 -9 -1
-9 -9z"/>
<path d="M3456 934 c-8 -20 0 -32 14 -18 5 5 5 15 1 22 -6 11 -10 10 -15 -4z"/>
<path d="M4165 930 c-4 -6 1 -7 12 -3 15 6 16 4 5 -9 -10 -13 -10 -19 3 -32 9
-9 20 -16 24 -16 14 0 38 34 38 53 0 25 -26 21 -39 -8 -6 -13 -15 -22 -21 -18
-5 3 -4 9 3 13 7 4 9 13 6 19 -9 14 -23 14 -31 1z m56 -33 c-10 -9 -11 -8 -5
6 3 10 9 15 12 12 3 -3 0 -11 -7 -18z"/>
<path d="M3410 909 c-22 -18 -22 -19 -3 -10 12 6 25 16 28 21 9 15 3 12 -25
-11z"/>
<path d="M915 883 c-5 -10 -9 -29 -11 -43 -3 -22 -2 -22 5 -5 5 11 7 23 4 28
-2 4 1 7 6 7 14 0 14 -11 1 -44 -8 -21 -7 -26 6 -26 8 0 22 7 30 15 9 8 11 15
5 15 -6 0 -10 10 -8 23 1 14 -3 21 -12 19 -8 -2 -11 3 -8 13 9 21 -9 19 -18
-2z m22 -65 c-3 -8 -6 -5 -6 6 -1 11 2 17 5 13 3 -3 4 -12 1 -19z"/>
<path d="M3420 890 c-12 -8 -12 -10 3 -16 15 -5 10 -10 -23 -25 -44 -20 -65
-25 -41 -10 9 6 10 11 2 15 -5 4 -19 -2 -31 -14 -24 -24 -31 -26 -24 -5 4 8 1
15 -5 15 -6 0 -11 -7 -11 -15 0 -8 -5 -15 -11 -15 -5 0 -7 5 -3 12 4 6 3 8 -3
5 -6 -4 -23 -11 -38 -17 -26 -10 -27 -12 -11 -29 9 -9 13 -21 9 -24 -3 -4 -3
-7 1 -7 4 0 14 7 22 15 9 8 23 14 32 14 15 -1 15 -2 1 -6 -11 -2 -15 -11 -12
-22 3 -10 0 -22 -5 -25 -6 -4 -8 3 -6 16 2 13 2 17 -2 11 -3 -7 -15 -13 -27
-14 -21 0 -21 -1 -2 -9 11 -5 16 -9 10 -9 -5 -1 3 -10 20 -21 16 -11 30 -25
31 -32 0 -7 2 -21 2 -31 1 -11 7 -15 14 -11 8 5 9 2 5 -9 -6 -16 -4 -16 17 -2
19 13 23 13 23 1 0 -8 -6 -12 -14 -9 -9 4 -11 0 -6 -13 4 -12 3 -15 -5 -10 -9
6 -9 1 0 -18 6 -14 15 -26 19 -26 4 0 13 -16 19 -35 11 -32 30 -48 30 -25 0 6
-5 10 -12 10 -6 0 -8 3 -5 7 4 3 3 11 -3 17 -6 8 -3 12 9 12 12 0 17 -5 13
-15 -3 -9 -1 -12 6 -7 8 5 10 2 6 -8 -5 -12 -1 -14 24 -7 16 5 38 13 48 19 22
12 61 -9 50 -27 -4 -5 -2 -13 4 -16 8 -5 7 -11 -1 -21 -10 -12 -9 -13 6 -8 13
5 16 4 11 -4 -9 -16 7 -15 22 0 8 8 12 8 12 1 0 -16 -54 -32 -73 -22 -21 12
-93 -20 -75 -34 8 -5 5 -6 -9 -2 -14 4 -23 2 -23 -4 0 -6 -3 -10 -7 -10 -25 4
-43 -3 -43 -17 0 -9 5 -12 13 -8 7 5 6 0 -3 -11 -14 -17 -13 -18 15 -11 22 5
26 4 15 -4 -9 -6 -10 -10 -3 -10 6 0 18 7 27 15 8 8 22 15 31 15 22 0 75 28
75 40 0 5 6 7 14 4 8 -3 24 4 36 16 12 12 31 23 42 25 28 6 49 25 41 39 -4 6
1 5 10 -3 14 -11 18 -11 23 3 3 9 10 13 15 10 5 -3 8 0 7 7 -2 7 6 13 17 14
11 0 20 7 20 15 0 10 -9 14 -30 13 -141 -11 -176 -7 -182 16 -3 11 -11 22 -19
25 -8 3 -14 13 -14 23 0 17 -47 70 -54 62 -3 -2 -2 -17 1 -32 4 -19 10 -26 20
-23 8 3 17 -2 20 -12 4 -9 11 -20 17 -24 5 -3 11 -15 12 -25 3 -17 2 -17 -10
0 -14 18 -32 24 -21 7 3 -5 1 -10 -6 -10 -7 0 -9 10 -7 25 6 27 -1 32 -20 13
-9 -9 -12 -9 -13 2 -6 61 -4 77 9 93 8 9 10 17 5 17 -6 0 -16 14 -22 30 -5 17
-16 30 -24 30 -24 0 -40 25 -24 39 8 6 13 23 11 39 -2 15 -1 19 2 10 8 -25 23
-23 17 2 -4 16 0 20 20 20 14 0 29 -5 32 -10 4 -6 16 -8 27 -4 15 4 18 3 13
-6 -5 -9 -4 -11 3 -6 7 4 12 2 12 -3 0 -6 -4 -11 -8 -11 -5 0 -9 -7 -9 -15 0
-8 4 -12 9 -9 4 3 8 -2 8 -10 0 -8 10 -22 23 -31 14 -12 18 -19 10 -22 -10 -4
-10 -10 -1 -26 11 -21 11 -21 20 -2 7 16 8 15 5 -7 -5 -31 9 -39 16 -10 3 10
5 6 6 -11 1 -20 -3 -26 -11 -22 -7 4 -2 -2 12 -13 46 -38 92 -9 48 30 -19 16
-20 19 -4 14 18 -6 18 -5 1 21 -10 15 -22 32 -27 38 -5 5 -17 21 -28 34 -11
13 -22 33 -26 44 -6 20 -7 20 -24 -2 l-17 -23 0 31 c0 21 5 30 13 27 8 -3 10
2 7 15 -3 12 -11 18 -19 15 -7 -3 -20 1 -28 9 -16 17 -63 20 -86 5z m80 -41
c0 -5 -4 -9 -8 -9 -5 0 -9 7 -9 15 0 8 4 12 9 9 4 -3 8 -9 8 -15z m35 11 c-3
-5 -12 -10 -18 -10 -7 0 -6 4 3 10 19 12 23 12 15 0z m-154 -57 c-7 -27 -31
-45 -31 -23 0 6 6 8 13 5 6 -4 1 3 -13 16 -23 20 -24 21 -3 15 12 -4 24 -2 28
4 11 18 14 11 6 -17z m-125 -10 c-10 -10 -19 5 -10 18 6 11 8 11 12 0 2 -7 1
-15 -2 -18z m47 10 c-7 -2 -19 -2 -25 0 -7 3 -2 5 12 5 14 0 19 -2 13 -5z
m277 -35 c0 -10 8 -18 18 -18 14 0 15 -2 2 -10 -20 -12 -32 2 -35 41 -2 21 0
27 6 18 5 -8 9 -22 9 -31z m-158 -52 c7 4 8 2 4 -5 -9 -13 -26 -5 -25 12 0 9
2 8 6 -1 2 -6 10 -9 15 -6z m-37 -14 c-3 -3 -11 0 -18 7 -9 10 -8 11 6 5 10
-3 15 -9 12 -12z m-28 -21 c2 -26 -22 -47 -30 -27 -4 11 -1 13 10 9 12 -5 15
-2 10 9 -3 9 -3 19 0 22 9 8 9 8 10 -13z m298 -49 c-9 -9 -35 8 -35 23 0 13 3
12 20 -2 11 -9 17 -19 15 -21z m-215 -83 c0 -5 -4 -9 -10 -9 -5 0 -10 7 -10
16 0 8 5 12 10 9 6 -3 10 -10 10 -16z m300 -40 c0 -5 -5 -7 -10 -4 -6 4 -19 1
-28 -7 -15 -12 -16 -11 -3 5 15 19 41 23 41 6z m-170 -9 c0 -5 -4 -10 -10 -10
-5 0 -10 5 -10 10 0 6 5 10 10 10 6 0 10 -4 10 -10z"/>
<path d="M3360 879 c0 -5 5 -7 10 -4 6 3 10 8 10 11 0 2 -4 4 -10 4 -5 0 -10
-5 -10 -11z"/>
<path d="M975 860 c-9 -15 19 -29 32 -15 9 10 8 14 -8 18 -10 3 -21 2 -24 -3z"/>
<path d="M3683 855 c-9 -10 -8 -17 8 -31 15 -13 19 -14 19 -3 1 8 7 1 15 -16
7 -16 14 -23 14 -14 1 8 -9 29 -22 46 -18 24 -25 28 -34 18z"/>
<path d="M3875 850 c-16 -18 -16 -20 -1 -26 9 -3 16 -11 16 -16 0 -6 -7 -7
-16 -4 -14 6 -15 4 -4 -9 11 -13 15 -13 21 -3 5 7 16 13 26 13 12 0 17 8 18
30 1 25 -4 31 -21 33 -12 1 -29 -7 -39 -18z m25 0 c-12 -8 -10 -10 10 -11 23
0 23 -1 5 -8 -11 -5 -22 -4 -23 0 -2 5 -9 6 -15 2 -7 -4 -6 1 2 10 7 9 19 17
25 17 6 0 4 -5 -4 -10z"/>
<path d="M1525 840 c-3 -5 0 -10 9 -10 8 0 23 -3 33 -6 16 -5 16 -4 -1 10 -23
19 -32 20 -41 6z"/>
<path d="M3438 833 c7 -3 16 -2 19 1 4 3 -2 6 -13 5 -11 0 -14 -3 -6 -6z"/>
<path d="M3190 787 c14 -8 27 -12 30 -10 7 6 -23 23 -40 23 -8 0 -4 -6 10 -13z"/>
<path d="M3140 780 c-8 -4 -28 -13 -45 -20 -16 -7 -38 -17 -48 -22 -11 -5 -21
-7 -24 -4 -3 2 -21 -4 -40 -15 -19 -11 -32 -15 -28 -9 3 5 1 10 -4 10 -6 0
-11 -5 -11 -11 0 -5 -4 -8 -9 -4 -5 3 -29 -1 -53 -10 -24 -8 -56 -15 -71 -15
-25 0 -27 -2 -13 -15 8 -9 29 -14 47 -13 19 1 34 -3 37 -10 2 -6 10 -12 17
-12 16 0 15 -30 -2 -48 -13 -13 -7 -42 9 -42 5 0 6 5 3 10 -3 6 -3 15 1 22 5
8 10 6 16 -8 6 -13 7 -6 4 21 -2 22 -2 34 1 27 2 -6 8 -10 13 -7 4 3 6 -5 3
-17 -4 -21 -4 -21 9 2 8 14 10 27 6 28 -10 5 -11 22 0 21 4 -1 16 -1 26 0 20
1 20 1 0 16 -22 17 -12 20 17 5 13 -8 19 -7 19 0 0 6 12 10 28 9 15 0 38 2 52
6 19 5 21 4 10 -4 -12 -8 -11 -10 7 -8 21 1 22 3 8 24 -18 26 -19 33 -5 33 6
0 10 -7 10 -15 0 -8 5 -15 10 -15 6 0 10 -12 10 -27 0 -18 3 -24 10 -17 7 7 4
24 -7 52 -17 45 -10 69 12 39 10 -14 14 -15 18 -5 4 10 8 10 16 -2 9 -12 10
-10 7 10 -3 14 -5 27 -5 29 -1 3 -8 -4 -16 -15 -14 -19 -14 -19 -15 3 0 26
-10 33 -30 23z m-124 -69 c-18 -7 -18 -8 -2 -14 10 -4 27 -7 38 -7 29 0 20 -6
-22 -14 -22 -4 -30 -3 -21 3 11 7 9 10 -9 16 -18 6 -20 9 -9 16 8 5 21 8 29 8
10 0 9 -3 -4 -8z"/>
<path d="M3400 760 c0 -5 5 -10 11 -10 5 0 7 5 4 10 -3 6 -8 10 -11 10 -2 0
-4 -4 -4 -10z"/>
<path d="M1229 733 c-1 -5 -1 -12 0 -16 1 -5 -7 -11 -18 -14 -18 -4 -18 -7 -6
-20 17 -17 37 -9 28 12 -3 8 0 15 6 15 6 0 11 7 11 15 0 15 -19 22 -21 8z"/>
<path d="M1845 720 c3 -5 10 -10 16 -10 5 0 9 5 9 10 0 6 -7 10 -16 10 -8 0
-12 -4 -9 -10z"/>
<path d="M865 710 c-4 -6 -13 -9 -20 -8 -8 2 -13 -1 -12 -7 3 -13 27 -16 27
-4 0 6 4 8 9 5 5 -4 8 -14 6 -24 -1 -9 5 -25 13 -35 16 -18 17 -18 23 0 7 16
8 15 8 -4 1 -13 5 -23 10 -23 5 0 11 10 13 23 3 20 4 20 9 -5 4 -15 2 -25 -2
-22 -5 3 -9 1 -9 -3 0 -17 40 -34 58 -24 9 6 13 11 8 11 -5 0 -2 8 5 18 7 9 9
14 5 10 -5 -5 -16 1 -23 12 -8 11 -19 18 -24 15 -5 -3 -6 1 -2 10 4 13 8 14
14 4 6 -10 11 -10 23 0 26 22 1 42 -47 38 -29 -3 -43 -10 -53 -28 l-13 -24 -1
32 c0 33 -14 51 -25 33z m125 -115 c0 -8 -4 -15 -10 -15 -5 0 -7 7 -4 15 4 8
8 15 10 15 2 0 4 -7 4 -15z"/>
<path d="M2700 660 c0 -5 5 -10 10 -10 6 0 10 5 10 10 0 6 -4 10 -10 10 -5 0
-10 -4 -10 -10z"/>
<path d="M2748 663 c7 -3 16 -2 19 1 4 3 -2 6 -13 5 -11 0 -14 -3 -6 -6z"/>
<path d="M2758 643 c7 -3 16 -2 19 1 4 3 -2 6 -13 5 -11 0 -14 -3 -6 -6z"/>
<path d="M2828 641 c-37 -8 -23 -27 25 -34 41 -5 46 2 20 25 -11 9 -28 12 -45
9z"/>
<path d="M3184 628 c3 -13 5 -26 5 -30 1 -4 8 -14 17 -23 12 -11 13 -19 5 -29
-6 -7 -8 -15 -5 -18 2 -3 -2 -8 -11 -12 -9 -3 -13 -2 -10 4 4 6 -7 7 -27 4
-18 -4 -37 -7 -43 -8 -5 0 -10 10 -10 24 0 20 -4 25 -23 22 -34 -3 -51 -25
-50 -61 1 -18 4 -27 8 -21 5 9 9 9 14 1 4 -6 4 -16 0 -23 -5 -8 -2 -9 10 -5
14 5 17 3 13 -8 -4 -8 -2 -17 3 -20 5 -3 11 3 14 13 4 12 17 18 38 19 27 2 29
0 13 -7 -15 -7 -16 -9 -4 -9 9 -1 28 10 42 24 18 19 27 22 31 13 3 -7 4 -2 2
12 -5 24 -4 24 9 6 8 -11 15 -26 15 -34 0 -7 4 -11 9 -8 5 4 11 0 13 -6 3 -7
5 2 5 20 0 17 -4 32 -9 32 -5 0 -6 5 -2 12 5 7 2 9 -9 5 -15 -6 -34 20 -22 31
3 3 5 0 5 -7 0 -7 5 -9 11 -6 7 5 4 14 -7 26 -9 11 -15 22 -11 25 3 3 -3 15
-13 27 -11 11 -17 24 -14 29 3 4 0 8 -5 8 -6 0 -9 -10 -7 -22z m-24 -122 c0
-2 -9 -6 -20 -9 -11 -3 -18 -1 -14 4 5 9 34 13 34 5z m-13 -32 c-3 -3 -12 -4
-19 -1 -8 3 -5 6 6 6 11 1 17 -2 13 -5z"/>
<path d="M1945 603 c-3 -10 -3 -14 1 -10 4 4 13 -1 20 -11 12 -15 15 -15 24
-2 13 21 8 33 -17 36 -13 2 -24 -3 -28 -13z m36 -16 c-10 -9 -11 -8 -5 6 3 10
9 15 12 12 3 -3 0 -11 -7 -18z"/>
<path d="M1812 539 c-17 -26 -15 -49 4 -49 8 0 13 -4 10 -9 -3 -4 5 -8 17 -7
13 1 21 7 19 15 -2 8 2 17 9 21 6 4 8 13 5 19 -4 6 -12 9 -17 6 -5 -4 -9 -2
-9 3 0 19 -27 20 -38 1z"/>
<path d="M1974 537 c-5 -15 -1 -54 8 -62 3 -3 5 12 4 35 -1 42 -3 48 -12 27z"/>
<path d="M1421 518 c-1 -10 -5 -18 -11 -18 -5 0 -10 -5 -10 -12 0 -8 6 -7 16
4 9 9 14 22 11 30 -4 9 -6 7 -6 -4z"/>
<path d="M1693 523 c-26 -5 -38 -32 -22 -47 9 -8 10 -7 4 3 -5 10 -4 12 4 7 6
-4 9 -11 6 -16 -3 -5 -1 -11 4 -14 5 -3 11 3 14 14 3 11 1 20 -5 20 -5 0 -2 7
6 16 14 13 22 27 14 23 -2 -1 -13 -4 -25 -6z"/>
<path d="M2927 503 c-4 -3 -7 -13 -7 -22 1 -13 3 -13 11 2 11 19 8 33 -4 20z"/>
<path d="M1130 490 c-8 -5 -12 -11 -10 -12 37 -28 63 -39 73 -29 8 8 5 16 -11
31 -24 22 -31 24 -52 10z m50 -25 c7 -8 8 -15 2 -15 -5 0 -15 7 -22 15 -7 8
-8 15 -2 15 5 0 15 -7 22 -15z"/>
<path d="M2881 484 c0 -11 3 -14 6 -6 3 7 2 16 -1 19 -3 4 -6 -2 -5 -13z"/>
<path d="M2360 474 c0 -8 5 -12 10 -9 6 3 10 10 10 16 0 5 -4 9 -10 9 -5 0
-10 -7 -10 -16z"/>
<path d="M1550 469 c0 -8 -11 -27 -25 -43 -25 -29 -31 -46 -17 -46 12 0 57 88
49 96 -4 4 -7 1 -7 -7z"/>
<path d="M2515 470 c-13 -6 -15 -9 -5 -9 13 -1 13 -2 0 -11 -13 -8 -13 -10 2
-10 9 0 20 5 23 10 4 6 11 7 17 4 7 -5 4 -12 -7 -21 -15 -10 -15 -13 -4 -13 8
0 21 6 28 13 8 6 12 8 9 2 -3 -5 -2 -18 1 -28 7 -18 8 -18 21 -1 12 15 12 16
1 9 -11 -6 -13 -3 -9 13 6 21 -13 47 -25 35 -4 -3 -7 -1 -7 5 0 14 -16 14 -45
2z"/>
<path d="M1654 462 c4 -7 3 -12 -2 -12 -5 0 -17 -21 -27 -47 -10 -27 -24 -55
-31 -63 -7 -8 -13 -19 -12 -23 0 -5 -4 -12 -8 -15 -4 -4 -5 -2 -1 3 10 18 -26
34 -41 19 -11 -12 -9 -14 6 -14 23 0 25 -30 3 -31 -9 0 2 -7 24 -15 22 -8 51
-12 65 -9 18 4 21 3 10 -4 -12 -9 -12 -11 2 -16 9 -4 22 -8 30 -9 7 -2 20 -6
28 -9 46 -18 94 -25 111 -17 25 14 29 12 22 -7 -5 -11 -3 -14 6 -8 7 4 16 3
20 -2 10 -16 224 -53 238 -41 9 7 17 5 28 -6 18 -18 29 -21 20 -6 -8 13 1 13
26 0 13 -7 19 -7 19 0 0 5 -7 10 -15 10 -8 0 -15 5 -15 11 0 5 -4 7 -10 4 -5
-3 -10 1 -10 10 0 9 4 13 10 10 6 -3 7 1 4 9 -7 18 -34 22 -34 6 0 -21 -18 -9
-33 23 -12 25 -14 42 -7 72 10 42 6 60 -5 26 -3 -12 -11 -21 -16 -21 -5 0 -9
-5 -9 -11 0 -5 5 -7 12 -3 8 5 9 2 5 -10 -4 -10 -7 -23 -8 -29 0 -7 -4 -3 -9
8 -8 19 -9 19 -9 -3 -1 -13 -5 -20 -11 -17 -5 3 -12 -6 -16 -20 -6 -23 -27
-38 -22 -14 4 14 -29 36 -39 26 -4 -5 -1 -12 7 -17 8 -6 11 -10 5 -10 -28 0
-35 17 -26 61 5 24 14 68 20 98 11 53 3 86 -16 67 -4 -4 -1 -11 7 -16 9 -6 10
-10 3 -10 -6 0 -15 5 -18 10 -4 7 -11 7 -18 2 -18 -14 -95 -23 -102 -12 -3 5
-12 7 -21 3 -18 -6 -46 -58 -37 -67 9 -9 -18 -56 -29 -50 -4 3 -8 -1 -8 -8 0
-8 -5 -6 -11 5 -5 9 -19 17 -29 17 -11 0 -20 5 -20 10 0 6 -5 10 -11 10 -5 0
-7 -4 -4 -10 3 -5 1 -10 -4 -10 -14 0 -14 -1 11 51 22 43 32 82 19 74 -4 -2
-13 0 -21 6 -13 7 -12 9 3 9 19 0 23 25 5 36 -7 4 -8 3 -4 -4z m-7 -82 c1 -11
-2 -22 -8 -25 -7 -5 -7 18 0 43 3 8 7 -1 8 -18z m-22 -39 c3 -5 1 -12 -5 -16
-5 -3 -10 1 -10 9 0 18 6 21 15 7z m112 -113 c-3 -8 -6 -5 -6 6 -1 11 2 17 5
13 3 -3 4 -12 1 -19z m160 -34 c-3 -3 -12 -4 -19 -1 -8 3 -5 6 6 6 11 1 17 -2
13 -5z m188 -13 c-4 -15 -1 -19 12 -17 10 2 12 1 6 -1 -7 -3 -13 -10 -13 -16
0 -7 -5 -5 -10 5 -6 9 -7 23 -4 32 9 23 17 20 9 -3z m-92 -18 c-7 -2 -19 -2
-25 0 -7 3 -2 5 12 5 14 0 19 -2 13 -5z"/>
<path d="M1966 456 c5 -13 4 -17 -4 -12 -7 4 -12 3 -12 -3 0 -5 5 -13 10 -16
15 -9 25 24 11 38 -9 9 -11 8 -5 -7z"/>
<path d="M2490 420 c0 -5 7 -10 16 -10 8 0 12 5 9 10 -3 6 -10 10 -16 10 -5 0
-9 -4 -9 -10z"/>
<path d="M3050 421 c0 -12 31 -43 37 -37 3 2 -5 14 -16 25 -12 12 -21 17 -21
12z"/>
<path d="M3104 400 c1 -18 7 -25 22 -26 11 -1 21 4 21 10 0 6 4 19 8 28 5 13
2 15 -14 11 -12 -3 -21 -10 -21 -15 0 -5 5 -6 10 -3 6 3 10 2 10 -3 0 -6 -6
-12 -14 -15 -10 -4 -16 2 -19 16 -3 18 -4 18 -3 -3z"/>
<path d="M3251 405 c-1 -25 3 -31 22 -32 12 0 16 1 9 4 -6 3 -10 9 -6 14 3 5
1 9 -5 9 -5 0 -12 8 -14 18 -3 9 -5 3 -6 -13z"/>
<path d="M3281 408 c7 -12 13 -31 13 -43 1 -11 7 -19 14 -17 11 2 14 -2 16
-30 1 -19 16 -26 38 -20 20 5 19 6 -3 18 -13 7 -18 13 -12 14 9 0 8 6 -4 19
-9 11 -20 18 -25 15 -4 -3 -5 1 -3 9 3 7 -3 23 -13 35 -25 28 -36 28 -21 0z"/>
<path d="M1270 405 c-11 -13 -10 -14 4 -9 9 3 16 10 16 15 0 13 -6 11 -20 -6z"/>
<path d="M2635 410 c-19 -8 -19 -9 3 -9 12 -1 22 4 22 9 0 6 -1 10 -2 9 -2 0
-12 -4 -23 -9z"/>
<path d="M2521 401 c-8 -5 -20 -7 -28 -4 -9 4 -13 -6 -13 -35 0 -59 8 -74 31
-61 13 6 19 6 19 -1 0 -5 6 -10 14 -10 20 0 29 -17 15 -26 -8 -5 -9 -3 -4 6 6
10 1 11 -21 6 -23 -5 -26 -4 -14 4 10 8 11 10 2 8 -17 -4 -12 -24 6 -22 6 1
12 -2 12 -7 0 -15 16 -10 41 12 13 11 17 17 9 13 -12 -6 -13 -4 -2 7 20 21 14
29 -14 19 -16 -7 -23 -7 -19 0 3 6 -1 10 -9 10 -9 0 -16 8 -16 19 0 11 -5 23
-12 27 -7 4 -8 3 -4 -4 5 -8 2 -10 -8 -6 -22 8 -11 21 24 29 16 4 32 11 35 16
8 12 -25 12 -44 0z"/>
<path d="M2057 335 c-9 -19 -12 -35 -7 -35 5 0 12 11 16 25 3 14 10 22 15 19
5 -3 9 2 9 10 0 27 -15 18 -33 -19z"/>
<path d="M1400 348 c-18 -8 -21 -12 -10 -15 8 -3 33 -14 54 -24 22 -10 41 -17
43 -15 7 7 -28 36 -43 36 -8 0 -13 4 -9 9 9 15 -8 19 -35 9z"/>
<path d="M2176 344 c-4 -9 -4 -19 -1 -22 3 -3 5 0 5 7 0 7 4 9 10 6 6 -3 7 1
4 9 -8 20 -10 20 -18 0z"/>
<path d="M3245 334 c-9 -14 -21 -22 -28 -18 -7 4 -9 4 -5 -1 4 -4 3 -14 -3
-21 -8 -9 -5 -11 10 -7 12 3 21 9 21 14 0 5 7 6 16 2 13 -5 15 -1 10 18 -3 13
-3 18 0 11 6 -13 24 -7 24 8 0 20 -30 17 -45 -6z"/>
<path d="M3285 320 c-3 -5 1 -10 9 -10 8 0 18 5 21 10 3 6 -1 10 -9 10 -8 0
-18 -4 -21 -10z"/>
<path d="M2188 306 c-10 -7 -18 -22 -18 -32 0 -14 2 -16 9 -6 6 10 10 6 14
-15 3 -15 1 -33 -4 -39 -13 -16 1 -25 22 -13 18 9 18 11 3 34 -10 15 -14 37
-12 55 3 16 4 30 4 30 -1 0 -9 -7 -18 -14z"/>
<path d="M3300 290 c8 -5 20 -10 25 -10 6 0 3 5 -5 10 -8 5 -19 10 -25 10 -5
0 -3 -5 5 -10z"/>
<path d="M3226 275 c-18 -14 -17 -15 22 -15 42 0 56 13 26 24 -22 8 -26 7 -48
-9z"/>
<path d="M2220 251 c0 -5 5 -13 10 -16 6 -3 10 -2 10 4 0 5 -4 13 -10 16 -5 3
-10 2 -10 -4z"/>
<path d="M2865 160 c-3 -5 1 -10 10 -10 9 0 13 5 10 10 -3 6 -8 10 -10 10 -2
0 -7 -4 -10 -10z"/>
</g>
</svg>
